<svg xmlns="http://www.w3.org/2000/svg" xmlns:xlink="http://www.w3.org/1999/xlink"><symbol id="25" viewBox="0 0 40 28"><g><g><path stroke="#ec343c" stroke-linecap="round" stroke-linejoin="bevel" stroke-miterlimit="50" stroke-width="1.5" d="M1.153 26.907V23.52l8.587-8.958c1.24-1.383 2.12-2.551 2.643-3.503.523-.952.784-1.836.784-2.652 0-1.088-.3-1.978-.902-2.67-.602-.692-1.456-1.038-2.562-1.038-1.228 0-2.16.405-2.798 1.215-.638.81-.957 1.89-.957 3.238H.77l-.036-.107c-.061-2.33.726-4.301 2.36-5.916C4.73 1.514 6.932.707 9.704.707c2.734 0 4.885.692 6.453 2.075 1.568 1.384 2.352 3.229 2.352 5.535 0 1.56-.441 3.004-1.322 4.328-.881 1.325-2.343 3.051-4.385 5.18l-4.721 5.02.036.089h6.891l.22-2.555h4.046v6.528zM35.533 6.97L35.06 5.23h-7.146l-.748 5.96c.498-.354 1.094-.647 1.787-.877a7.584 7.584 0 0 1 2.297-.364c2.552-.036 4.527.716 5.925 2.253 1.398 1.537 2.097 3.678 2.097 6.421 0 2.484-.77 4.547-2.307 6.191-1.537 1.644-3.752 2.466-6.645 2.466-2.43 0-4.515-.648-6.253-1.943-1.738-1.295-2.577-3.077-2.516-5.348l.037-.088 5.104-.249c0 1.147.334 2.043 1.003 2.688.668.644 1.543.966 2.625.966 1.24 0 2.157-.431 2.753-1.295.595-.863.893-1.98.893-3.352 0-1.49-.316-2.685-.948-3.584-.632-.898-1.574-1.348-2.825-1.348-1.01 0-1.784.184-2.325.55a3.01 3.01 0 0 0-1.157 1.49l-4.704-.301L23.537 1.08h15.278v5.889z"/></g></g></symbol><symbol id="384063" viewBox="0 0 100.22 55.26">
  <title>384063</title>
  <g id="&#x421;&#x43B;&#x43E;&#x439;_2" data-name="&#x421;&#x43B;&#x43E;&#x439; 2">
    <g id="&#x421;&#x43B;&#x43E;&#x439;_1-2" data-name="&#x421;&#x43B;&#x43E;&#x439; 1">
      <g>
        <path d="M100.22,26.45a21.5,21.5,0,0,1-2,3.61,6.25,6.25,0,0,1-4.92,2c-3,0-5.94,0-8.91,0-1.42,0-2.23-1-1.76-2.11a1.67,1.67,0,0,1,1.75-1c3,0,6,0,9,0a3.61,3.61,0,0,0,3.74-4,3.58,3.58,0,0,0-3.68-3.1c-1.5,0-3,0-4.5,0-4.34,0-8.68-.12-13,0-3.68.13-6-2.27-5.71-5.58a7.4,7.4,0,0,0-.06-.91H53.21c-1.19,0-1.89-.62-1.88-1.54s.72-1.49,1.92-1.49q12.63,0,25.25,0A7.33,7.33,0,0,1,85.7,18c.16.66.44.81,1.05.8,1.79,0,3.6.09,5.38,0,4.19-.28,7.14,1.71,8.09,5.74ZM82.59,18.77a3.65,3.65,0,0,0-3-3.21c-2-.19-4.13,0-6.3,0,0,.28,0,.6,0,.92,0,1.73.61,2.33,2.36,2.34h7Z"/>
        <path d="M5.51,8.49c.65,3.16,2.38,5.87,2.37,9.06h12.3c.94,0,2-.17,2.46.94s-.35,1.75-1,2.46l-6.6,7.43a32.14,32.14,0,0,0,4.19.6c7.5.06,15,0,22.51,0,1.15,0,1-1,1.52-1.65H30A5.08,5.08,0,0,1,29,27.27a1.38,1.38,0,0,1-1.18-1.55,1.41,1.41,0,0,1,1.28-1.39,5.28,5.28,0,0,1,1,0H75a5.24,5.24,0,0,1,1,0,1.42,1.42,0,0,1,1.26,1.5A1.36,1.36,0,0,1,76,27.27a6.37,6.37,0,0,1-1.07.09h-9.4c-1.57,0-1.57,0-2.25,1.63h6.95c1,0,2,0,2.94,0,1.13,0,1.8.57,1.82,1.48s-.63,1.59-1.82,1.6c-3.62,0-7.24,0-10.86,0a1.59,1.59,0,0,0-1.7.94c-.39.78-.91,1.5-1.44,2.35.34,0,.57.08.81.08,1.76,0,3.52,0,5.29,0a1.92,1.92,0,0,1,2.08,2.08c0,1.63,0,3.26,0,4.89s-.73,2.37-2.41,2.37c-3.52,0-7,0-10.57,0a1.77,1.77,0,0,0-1.77,1C51,48.44,49.31,51,47.7,53.68a3,3,0,0,1-2.8,1.57c-4,0-8,0-12,0-2.35,0-3.33-1.65-2.23-3.75q4.79-9.13,9.6-18.26c.16-.31.32-.63.57-1.15H20.2a16.66,16.66,0,0,1-6.6-1.16,1.24,1.24,0,0,0-.65-.16c-3.75.77-7.53.18-11.29.31-1.49,0-2.12-1.26-1.3-2.52,1.45-2.21,3-4.38,4.39-6.59a2.69,2.69,0,0,0,.31-1.42c0-.74-.24-1.49-.21-2.23a15.46,15.46,0,0,0-1.23-5.49Q2,8,.43,3.17C-.25,1.08.51,0,2.7,0c2.84,0,5.68,0,8.51,0a2.43,2.43,0,0,1,2.46,1.54c1.62,3.34,3.28,6.66,4.89,10a1.19,1.19,0,0,0,1.26.79c7,0,14,0,20.95,0h.69c1.62,0,2.38.5,2.36,1.55s-.75,1.49-2.31,1.49H22.8c-1.5,0-3,0-4.5,0a1.84,1.84,0,0,1-1.85-1.16c-.81-1.71-1.64-3.4-2.51-5.08a1.21,1.21,0,0,0-.82-.61C10.6,8.47,8.09,8.49,5.51,8.49ZM37.42,45.25c3.78,0,7.4,0,11,0a1.42,1.42,0,0,0,1.4-.78q5-8.1,10.11-16.17c.17-.26.31-.54.54-.95H59.37c-3.88,0-7.76,0-11.64,0a1.37,1.37,0,0,0-1.41.88c-2.8,5.38-5.63,10.73-8.45,16.09C37.73,44.58,37.61,44.84,37.42,45.25ZM4.41,28c2.25,0,4.27,0,6.28,0a1.52,1.52,0,0,0,1-.46c1.9-2.1,3.77-4.22,5.65-6.35a4.51,4.51,0,0,0,.36-.59c-2.67,0-5.21,0-7.74,0a1,1,0,0,0-.73.32C7.62,23.23,6.07,25.55,4.41,28ZM33.75,52.15c3.73,0,7.25,0,10.77,0a.9.9,0,0,0,.66-.29c.73-1.1,1.42-2.23,2.22-3.51-3.88,0-7.56,0-11.23,0a.82.82,0,0,0-.59.37C35,49.8,34.41,50.89,33.75,52.15ZM3.67,3.1c.23.72.4,1.31.63,1.88.08.19.34.45.52.45,2.39,0,4.78,0,7.32,0-.37-.76-.65-1.38-1-2a.73.73,0,0,0-.5-.36C8.37,3.1,6.07,3.1,3.67,3.1ZM55.23,41.66h4.42V38.53c-.67,0-1.29,0-1.9,0a1.2,1.2,0,0,0-.8.39C56.36,39.78,55.85,40.68,55.23,41.66Zm9,0V38.6H62.87v3.09Z"/>
        <path d="M21,38.59c3.39,0,6.78,0,10.17,0a2.6,2.6,0,0,1,1.68.71,1.39,1.39,0,0,1-.72,2.2,3.46,3.46,0,0,1-1.06.14H10.77c-.16,0-.33,0-.49,0a1.62,1.62,0,0,1-1.65-1.59,1.57,1.57,0,0,1,1.74-1.48C13.93,38.58,17.48,38.59,21,38.59Z"/>
        <path d="M22.82,51.35c-1.14,0-2.28,0-3.42,0a1.53,1.53,0,0,1-1.7-1.5,1.52,1.52,0,0,1,1.68-1.52q3.42,0,6.84,0c1.1,0,1.78.65,1.75,1.55s-.71,1.46-1.83,1.48-2.22,0-3.32,0Z"/>
        <path d="M6.92,51.34c-.68,0-1.37,0-2,0a1.43,1.43,0,0,1-1.45-1.51,1.38,1.38,0,0,1,1.4-1.46c1.43,0,2.86,0,4.29,0a1.44,1.44,0,0,1,1.37,1.5,1.49,1.49,0,0,1-1.42,1.46C8.35,51.38,7.64,51.34,6.92,51.34Z"/>
        <path d="M52.86,17.59a1.5,1.5,0,1,1-1.53,1.47A1.53,1.53,0,0,1,52.86,17.59Z"/>
        <path d="M45.33,19a1.52,1.52,0,1,1-1.54-1.46A1.53,1.53,0,0,1,45.33,19Z"/>
        <path d="M34.8,20.58a1.5,1.5,0,1,1,0-3,1.47,1.47,0,0,1,1.48,1.49A1.49,1.49,0,0,1,34.8,20.58Z"/>
        <path d="M61.9,17.58A1.5,1.5,0,1,1,60.39,19,1.49,1.49,0,0,1,61.9,17.58Z"/>
      </g>
    </g>
  </g>
</symbol><symbol id="airplane" viewBox="0 0 64 64"><path d="m41 19h18a1 1 0 0 0 1-1v-1a3.913 3.913 0 0 0 -4-4h-.288c-.834-1.847-2.982-3-5.712-3-2.911 0-4.78.983-5.689 3h-.311a3.748 3.748 0 0 0 -4 4v1a1 1 0 0 0 1 1zm3-4h1a1 1 0 0 0 .955-.7c.371-1.2 1.118-2.3 4.045-2.3 1.617 0 3.643.583 4.026 2.227a1 1 0 0 0 .974.773h1a1.913 1.913 0 0 1 2 2h-16a1.793 1.793 0 0 1 2-2z"/><path d="m18 48h-.288c-.834-1.847-2.982-3-5.712-3-2.911 0-4.78.983-5.689 3h-.311a3.748 3.748 0 0 0 -4 4v1a1 1 0 0 0 1 1h18a1 1 0 0 0 1-1v-1a3.913 3.913 0 0 0 -4-4zm-14 4a1.793 1.793 0 0 1 2-2h1a1 1 0 0 0 .955-.7c.371-1.2 1.118-2.3 4.045-2.3 1.617 0 3.643.583 4.026 2.227a1 1 0 0 0 .974.773h1a1.913 1.913 0 0 1 2 2z"/><path d="m61.91 32.585a7.662 7.662 0 0 0 -1.92-2.336c-1.981-1.743-5.835-3.895-12.99-4.249h-2.626l-14.719-12.756a1 1 0 0 0 -.655-.244h-4a1 1 0 0 0 -.908 1.419l5.345 11.581h-14.778l-5.74-13.394a1 1 0 0 0 -.919-.606h-4a1 1 0 0 0 -1 1.071l.941 13.129a3 3 0 0 0 -1.941 2.8v4a3 3 0 0 0 1.752 2.728l-1.714 6a1 1 0 0 0 .962 1.272h4a1 1 0 0 0 .707-.293l5.683-5.683 15.185.894-4.509 11.723a1 1 0 0 0 .934 1.359h4a1 1 0 0 0 .707-.293l11.707-11.707h1.586c13.523 0 18.519-5.094 18.725-5.311a1 1 0 0 0 .185-1.104zm-5.945-2.585h-9.965v-2h.95a23.318 23.318 0 0 1 9.015 2zm-29.4-15h2.065l3.462 3h-1.092v2h3.4l2.3 2h-2.7v2h5v-.01l2.319 2.01h-9.679zm-19.224-1 5.142 12h-6.552l-.143-2h3.212v-2h-3.355l-.145-2h1.5v-2h-1.64l-.286-4zm35.659 23h-2a1 1 0 0 0 -.707.293l-2.707 2.707h-3.586v2h1.586l-2 2h-3.586v2h1.586l-3 3h-2.13l4.478-11.641a1 1 0 0 0 -.875-1.359l-17-1a.993.993 0 0 0 -.766.291l-5.707 5.709h-2.26l1.636-5.725a1 1 0 0 0 -.962-1.275 1 1 0 0 1 -1-1v-1h11v-2h-11v-1a1 1 0 0 1 1-1h39v3a1 1 0 0 0 1 1h13.929a7.876 7.876 0 0 1 .753.8c-1.61 1.214-6.607 4.2-16.682 4.2z"/><path d="m39 30h2v2h-2z"/><path d="m35 30h2v2h-2z"/><path d="m31 30h2v2h-2z"/><path d="m27 30h2v2h-2z"/><path d="m23 30h2v2h-2z"/><path d="m19 30h2v2h-2z"/></symbol><symbol id="backpack" viewBox="0 0 512 512"><path d="m497.213 274.129c-9.535-9.536-22.218-14.787-35.713-14.787h-27.265c-.491-25.602-1.449-51.162-2.866-76.619 5.133-7.465 9.348-15.666 12.453-24.464 1.379-3.906-.67-8.19-4.576-9.569s-8.19.67-9.569 4.576c-2.878 8.154-6.871 15.706-11.766 22.51-.18.222-.348.454-.501.696-11.85 16.14-28.867 27.93-48.422 33.15v-53.974c0-4.142-3.358-7.5-7.5-7.5h-36.489c-4.142 0-7.5 3.358-7.5 7.5v57.503c-40.901.601-82.242.602-123.135 0v-57.503c0-4.142-3.358-7.5-7.5-7.5h-36.489c-4.142 0-7.5 3.358-7.5 7.5v53.95c-19.988-5.327-36.825-17.29-48.453-33.043-.1-.145-.205-.285-.315-.422-13.329-18.283-19.673-41.595-15.841-65.555.157-.987.323-1.974.484-2.93 2.12-12.294 12.655-21.542 25.052-21.99 100.989-3.677 203.403-3.677 304.396 0 12.395.448 22.93 9.696 25.052 22.001.071.406.142.813.204 1.219.005.035.011.07.017.105.944 5.669 1.351 11.42 1.211 17.094-.103 4.141 3.171 7.581 7.313 7.683 4.14.097 7.581-3.172 7.683-7.313.163-6.602-.308-13.288-1.4-19.873-.076-.496-.162-.992-.246-1.476-3.19-18.495-18.572-32.58-37.021-34.278v-52.538c0-10.074-8.191-18.27-18.26-18.27h-33.2c-10.074 0-18.27 8.196-18.27 18.27v50.488c-4.546-.092-9.092-.179-13.641-.256-13.169-27.604-40.786-45.183-71.709-45.183-30.924 0-58.542 17.579-71.711 45.185-4.548.077-9.094.165-13.64.257v-50.491c0-10.074-8.196-18.27-18.27-18.27h-33.2c-10.069 0-18.26 8.196-18.26 18.27v52.552c-18.388 1.757-33.699 15.817-36.886 34.293-.174 1.033-.348 2.067-.51 3.09-4.353 27.214 2.508 53.716 17.167 74.813-1.41 25.352-2.363 50.809-2.853 76.311h-27.268c-27.846 0-50.5 22.654-50.5 50.5 0 4.142 3.358 7.5 7.5 7.5h24.68v82.19c0 32.006 23.763 58.312 54.969 62.001 3.579 8.86 8.852 17.015 15.612 23.947 12.327 12.638 28.794 20.428 46.367 21.935 35.462 3.049 71.161 4.574 106.873 4.574 35.703 0 71.418-1.525 106.872-4.574 17.51-1.503 33.942-9.228 46.27-21.751 6.871-6.98 12.216-15.207 15.81-24.149 31.155-3.735 54.879-30.031 54.879-61.982v-82.19h24.67c4.142 0 7.5-3.358 7.5-7.5-.002-13.495-5.253-26.179-14.789-35.713zm-140.933-255.847c0-1.803 1.467-3.27 3.27-3.27h33.2c1.797 0 3.26 1.467 3.26 3.27v51.951c-13.224-.441-26.468-.82-39.73-1.135zm-100.35 20.05c22.474 0 42.797 11.442 54.47 29.923-36.293-.467-72.649-.466-108.941.002 11.673-18.482 31.997-29.925 54.471-29.925zm-136.82-23.32h33.2c1.803 0 3.27 1.467 3.27 3.27v50.819c-13.262.316-26.506.696-39.73 1.137v-51.956c0-1.803 1.462-3.27 3.26-3.27zm213.389 148.134h21.489v78.828h-21.489zm-174.624 0h21.489v78.828h-21.489zm-107.375 111.196h27.037c-.113 9.33-.159 18.664-.149 28h-37.708-23.883c3.452-15.986 17.701-28 34.703-28zm-3.32 125.19v-82.19h30.277c.328 40.513 1.798 81.016 4.439 121.26.151 2.311.416 4.604.78 6.875-20.55-5.277-35.496-23.817-35.496-45.945zm351.271 75.609c-9.821 9.977-22.912 16.131-36.864 17.329-70.063 6.025-141.112 6.025-211.177 0-13.989-1.199-27.098-7.401-36.912-17.463-9.808-10.056-15.716-23.332-16.635-37.386-5.187-79.018-5.876-159.042-2.075-238.154 13.09 12.322 29.505 21.37 48.087 25.568v24.44c0 4.142 3.358 7.5 7.5 7.5h36.489c4.142 0 7.5-3.358 7.5-7.5v-21.323c20.446.3 41 .458 61.563.458s41.121-.159 61.573-.458v21.323c0 4.142 3.358 7.5 7.5 7.5h36.489c4.142 0 7.5-3.358 7.5-7.5v-24.415c18.326-4.138 34.906-13.151 48.221-25.77 3.813 79.342 3.118 159.569-2.093 238.759-.922 13.936-6.84 27.109-16.666 37.092zm66.379-75.609c0 22.097-14.931 40.631-35.459 45.925.33-2.123.57-4.265.713-6.423 2.657-40.38 4.135-81.029 4.464-121.693h30.283v82.191zm7.5-97.19h-37.714c.01-9.335-.036-18.669-.149-28h27.033c9.488 0 18.404 3.691 25.106 10.394 4.899 4.899 8.19 10.982 9.605 17.606z"/><path d="m348.809 298.585c-61.583-3.691-124.033-3.691-185.622 0-14.888.9-27.014 12.25-28.831 26.987-4.515 36.541-4.515 73.597 0 110.138 1.82 14.745 13.948 26.091 28.83 26.978 8.233.499 16.763.938 25.353 1.307 4.156.163 7.637-3.034 7.814-7.172s-3.034-7.637-7.172-7.814c-8.501-.364-16.942-.799-25.095-1.293-7.667-.457-13.909-6.278-14.842-13.843-4.364-35.321-4.364-71.14 0-106.462.932-7.563 7.177-13.388 14.845-13.852 60.987-3.656 122.834-3.656 183.819 0 7.67.464 13.92 6.292 14.859 13.852 4.354 35.322 4.354 71.142.001 106.457-.941 7.568-7.188 13.392-14.856 13.849-42.845 2.569-86.219 3.346-128.919 2.308-4.138-.096-7.579 3.175-7.68 7.316s3.174 7.579 7.315 7.68c12.354.3 24.76.45 37.196.45 30.972 0 62.116-.93 92.982-2.781 14.882-.886 27.014-12.229 28.848-26.979 4.504-36.54 4.504-73.595-.001-110.142-1.831-14.737-13.96-26.084-28.844-26.984z"/><path d="m250.697 422.883c1.406 1.407 3.314 2.197 5.303 2.197s3.897-.79 5.303-2.197l35.247-35.247c2.929-2.929 2.929-7.678 0-10.606l-35.247-35.247c-1.406-1.407-3.314-2.197-5.303-2.197s-3.897.79-5.303 2.197l-35.246 35.247c-2.929 2.929-2.929 7.678 0 10.606zm5.303-65.19 24.64 24.64-24.64 24.641-24.64-24.64z"/></symbol><symbol id="bed" viewBox="0 0 512 512">
<g>
	<g>
		<path d="M475,246.127c-7.227,0-13.97,2.09-19.674,5.687C448.832,233.309,431.195,220,410.5,220h-237
			c-11.559,0-22.163,4.155-30.408,11.043c-6.536-17.455-23.384-29.916-43.092-29.916c-9.643,0-18.598,2.988-26,8.08V118
			c0-20.402-16.598-37-37-37S0,97.598,0,118v357c0,5.522,4.477,10,10,10h54c5.523,0,10-4.478,10-10v-44h145c5.523,0,10-4.478,10-10
			c0-5.522-4.477-10-10-10H74V293.127h52v48.076c0,8.284,4.519,15.892,11.792,19.855c7.274,3.963,16.116,3.635,23.085-0.86
			l0.251-0.162c8.339-5.381,19.129-5.401,27.487-0.055l0.822,0.525c14.935,9.555,34.211,9.516,49.107-0.094l0.584-0.377
			c8.339-5.381,19.129-5.401,27.487-0.055l0.822,0.525c14.935,9.555,34.212,9.516,49.107-0.094l0.584-0.377
			c8.338-5.381,19.128-5.401,27.487-0.055l0.822,0.525c7.444,4.762,15.964,7.141,24.483,7.141
			c8.574-0.001,17.147-2.411,24.613-7.229l0.594-0.383c8.339-5.38,19.129-5.401,27.496-0.049l0.58,0.37
			c4.467,2.858,9.702,3.997,14.795,3.405V411H293.344c-5.523,0-10,4.478-10,10c0,5.522,4.477,10,10,10H438v44
			c0,5.522,4.477,10,10,10h54c5.523,0,10-4.478,10-10V283.127C512,262.726,495.402,246.127,475,246.127z M54,283.127V421v44H20V118
			c0-9.374,7.626-17,17-17s17,7.626,17,17V283.127z M100,273.127c-14.336,0-26-11.663-26-26c0-14.336,11.664-26,26-26
			s26,11.664,26,26C126,261.464,114.336,273.127,100,273.127z M438.001,268h-99.594c-5.523,0-10,4.478-10,10c0,5.522,4.477,10,10,10
			H438v53.311c0,1.279-0.738,1.951-1.357,2.29c-0.619,0.34-1.583,0.599-2.668-0.096l-0.58-0.37
			c-14.935-9.555-34.211-9.518-49.107,0.094l-0.584,0.377c-8.338,5.382-19.127,5.402-27.487,0.055l-0.822-0.525
			c-14.935-9.554-34.211-9.516-49.107,0.094l-0.584,0.377c-8.338,5.382-19.128,5.402-27.487,0.055l-0.822-0.525
			c-7.442-4.761-15.962-7.14-24.48-7.14c-8.577,0-17.153,2.412-24.626,7.233l-0.584,0.377c-8.338,5.382-19.128,5.402-27.487,0.055
			l-0.822-0.525c-14.935-9.553-34.211-9.516-49.117,0.101l-0.251,0.162c-1.077,0.695-2.042,0.438-2.665,0.099
			c-0.621-0.338-1.362-1.011-1.362-2.293V267.5c0-15.164,12.336-27.5,27.5-27.5h237c15.164,0,27.5,12.336,27.5,27.5V268z M492,465
			h-34v-44v-79.689v-58.184c0-9.374,7.626-17,17-17c9.374,0,17,7.626,17,17V465z"/>
	</g>
</g>
<g>
	<g>
		<path d="M263.07,413.93c-1.86-1.86-4.44-2.93-7.07-2.93s-5.21,1.069-7.07,2.93c-1.86,1.86-2.93,4.44-2.93,7.07
			s1.07,5.21,2.93,7.069c1.86,1.86,4.44,2.931,7.07,2.931s5.21-1.07,7.07-2.931c1.86-1.859,2.93-4.439,2.93-7.069
			S264.93,415.79,263.07,413.93z"/>
	</g>
</g>
<g>
	<g>
		<path d="M358.345,81h-29.858l36.929-36.929c2.86-2.86,3.715-7.162,2.167-10.898c-1.548-3.737-5.194-6.173-9.239-6.173h-54
			c-5.523,0-10,4.477-10,10s4.477,10,10,10h29.858l-36.929,36.929c-2.86,2.86-3.715,7.162-2.167,10.898
			c1.548,3.737,5.194,6.173,9.239,6.173h54c5.523,0,10-4.477,10-10S363.868,81,358.345,81z"/>
	</g>
</g>
<g>
	<g>
		<path d="M256.001,121h-15.858l22.929-22.929c2.86-2.86,3.715-7.162,2.167-10.898C263.691,83.437,260.044,81,256,81h-40
			c-5.523,0-10,4.477-10,10s4.477,10,10,10h15.858l-22.929,22.929c-2.86,2.86-3.715,7.162-2.167,10.898
			c1.548,3.737,5.194,6.173,9.239,6.173h40c5.523,0,10-4.477,10-10S261.524,121,256.001,121z"/>
	</g>
</g>
<g>
	<g>
		<path d="M172.305,157h-7.858l14.929-14.929c2.86-2.86,3.715-7.162,2.167-10.898c-1.548-3.737-5.194-6.173-9.239-6.173h-32
			c-5.523,0-10,4.477-10,10s4.477,10,10,10h7.858l-14.929,14.929c-2.86,2.86-3.715,7.162-2.167,10.898
			c1.548,3.737,5.194,6.173,9.239,6.173h32c5.523,0,10-4.477,10-10S177.828,157,172.305,157z"/>
	</g>
</g>
<g>
	<g>
		<path d="M311.42,270.93c-1.87-1.861-4.44-2.93-7.08-2.93c-2.63,0-5.21,1.069-7.07,2.93c-1.86,1.86-2.93,4.44-2.93,7.07
			s1.07,5.21,2.93,7.069c1.87,1.86,4.44,2.931,7.07,2.931s5.21-1.07,7.08-2.931c1.86-1.859,2.92-4.439,2.92-7.069
			S313.28,272.79,311.42,270.93z"/>
	</g>
</g>
<g>
</g>
<g>
</g>
<g>
</g>
<g>
</g>
<g>
</g>
<g>
</g>
<g>
</g>
<g>
</g>
<g>
</g>
<g>
</g>
<g>
</g>
<g>
</g>
<g>
</g>
<g>
</g>
<g>
</g>
</symbol><symbol id="blackboard" viewBox="0 0 512 512">
<g>
	<g>
		<g>
			<path d="M162.133,256h34.133c4.719,0,8.533-3.823,8.533-8.533s-3.814-8.533-8.533-8.533h-34.133
				c-4.719,0-8.533,3.823-8.533,8.533S157.414,256,162.133,256z"/>
			<path d="M128,204.8c4.719,0,8.533-3.823,8.533-8.533s-3.814-8.533-8.533-8.533H93.867c-4.719,0-8.533,3.823-8.533,8.533v68.267
				c0,4.71,3.814,8.533,8.533,8.533H128c4.719,0,8.533-3.823,8.533-8.533c0-4.71-3.814-8.533-8.533-8.533h-25.6v-17.067H128
				c4.719,0,8.533-3.823,8.533-8.533s-3.814-8.533-8.533-8.533h-25.6V204.8H128z"/>
			<path d="M256,409.6c-4.719,0-8.533,3.823-8.533,8.533v22.067l-57.233,57.233c-3.336,3.337-3.336,8.73,0,12.066
				c1.664,1.664,3.849,2.5,6.033,2.5c2.185,0,4.369-0.836,6.033-2.5l59.733-59.733c1.596-1.604,2.5-3.772,2.5-6.033v-25.6
				C264.533,413.423,260.719,409.6,256,409.6z"/>
			<path d="M287.633,463.3c-3.337-3.337-8.73-3.337-12.066,0c-3.337,3.336-3.337,8.73,0,12.066L309.7,509.5
				c1.664,1.664,3.849,2.5,6.033,2.5c2.185,0,4.369-0.836,6.033-2.5c3.337-3.336,3.337-8.73,0-12.066L287.633,463.3z"/>
			<path d="M503.467,17.067H264.533V8.533C264.533,3.823,260.719,0,256,0s-8.533,3.823-8.533,8.533v8.533H8.533
				C3.814,17.067,0,20.89,0,25.6v34.133c0,4.71,3.814,8.533,8.533,8.533h443.733c4.719,0,8.533-3.823,8.533-8.533
				s-3.814-8.533-8.533-8.533h-435.2V34.133h477.867V51.2H486.4c-4.719,0-8.533,3.823-8.533,8.533v290.133
				c0,14.114-11.486,25.6-25.6,25.6H59.733c-14.114,0-25.6-11.486-25.6-25.6v-256c0-4.71-3.814-8.533-8.533-8.533
				s-8.533,3.823-8.533,8.533v256c0,23.526,19.14,42.667,42.667,42.667h392.533c23.526,0,42.667-19.14,42.667-42.667v-281.6h8.533
				c4.719,0,8.533-3.823,8.533-8.533V25.6C512,20.89,508.186,17.067,503.467,17.067z"/>
			<path d="M426.667,196.267c0-14.114-11.486-25.6-25.6-25.6c-14.114,0-25.6,11.486-25.6,25.6c0,4.71,3.814,8.533,8.533,8.533
				c4.719,0,8.533-3.823,8.533-8.533c0-4.702,3.823-8.533,8.533-8.533s8.533,3.831,8.533,8.508
				c-0.205,2.645-6.861,9.762-13.653,14.532l-17.067,12.8c-2.935,2.21-4.139,6.042-2.97,9.523c1.152,3.49,4.412,5.837,8.09,5.837
				h34.133c4.719,0,8.533-3.823,8.533-8.533s-3.814-8.533-8.533-8.533h-8.516C416.145,216.704,426.667,206.754,426.667,196.267z"/>
			<path d="M332.8,204.8c4.71,0,8.533,3.831,8.533,8.533c0,4.71,3.814,8.533,8.533,8.533s8.533-3.823,8.533-8.533
				c0-14.114-11.486-25.6-25.6-25.6c-14.114,0-25.6,11.486-25.6,25.6v34.133c0,14.114,11.486,25.6,25.6,25.6
				c14.114,0,25.6-11.486,25.6-25.6c0-4.71-3.814-8.533-8.533-8.533s-8.533,3.823-8.533,8.533c0,4.702-3.823,8.533-8.533,8.533
				c-4.71,0-8.533-3.831-8.533-8.533v-34.133C324.267,208.631,328.09,204.8,332.8,204.8z"/>
			<path d="M281.6,273.067c4.719,0,8.533-3.823,8.533-8.533v-68.267c0-3.678-2.347-6.929-5.837-8.098
				c-3.49-1.152-7.313,0.051-9.523,2.978L256,216.183l-18.773-25.037c-2.202-2.935-6.025-4.139-9.523-2.978
				c-3.49,1.169-5.837,4.42-5.837,8.098v68.267c0,4.71,3.814,8.533,8.533,8.533s8.533-3.823,8.533-8.533v-42.667l10.24,13.653
				c3.217,4.301,10.436,4.301,13.653,0l10.24-13.653v42.667C273.067,269.244,276.881,273.067,281.6,273.067z"/>
			<path d="M162.133,221.867h34.133c4.719,0,8.533-3.823,8.533-8.533c0-4.71-3.814-8.533-8.533-8.533h-34.133
				c-4.719,0-8.533,3.823-8.533,8.533C153.6,218.044,157.414,221.867,162.133,221.867z"/>
		</g>
	</g>
</g>
<g>
</g>
<g>
</g>
<g>
</g>
<g>
</g>
<g>
</g>
<g>
</g>
<g>
</g>
<g>
</g>
<g>
</g>
<g>
</g>
<g>
</g>
<g>
</g>
<g>
</g>
<g>
</g>
<g>
</g>
</symbol><symbol id="calendar" viewBox="0 0 512 512">
<g>
	<g>
		<g>
			<circle cx="386" cy="210" r="20"/>
			<path d="M432,40h-26V20c0-11.046-8.954-20-20-20c-11.046,0-20,8.954-20,20v20h-91V20c0-11.046-8.954-20-20-20
				c-11.046,0-20,8.954-20,20v20h-90V20c0-11.046-8.954-20-20-20s-20,8.954-20,20v20H80C35.888,40,0,75.888,0,120v312
				c0,44.112,35.888,80,80,80h153c11.046,0,20-8.954,20-20c0-11.046-8.954-20-20-20H80c-22.056,0-40-17.944-40-40V120
				c0-22.056,17.944-40,40-40h25v20c0,11.046,8.954,20,20,20s20-8.954,20-20V80h90v20c0,11.046,8.954,20,20,20s20-8.954,20-20V80h91
				v20c0,11.046,8.954,20,20,20c11.046,0,20-8.954,20-20V80h26c22.056,0,40,17.944,40,40v114c0,11.046,8.954,20,20,20
				c11.046,0,20-8.954,20-20V120C512,75.888,476.112,40,432,40z"/>
			<path d="M391,270c-66.72,0-121,54.28-121,121s54.28,121,121,121s121-54.28,121-121S457.72,270,391,270z M391,472
				c-44.663,0-81-36.336-81-81s36.337-81,81-81c44.663,0,81,36.336,81,81S435.663,472,391,472z"/>
			<path d="M420,371h-9v-21c0-11.046-8.954-20-20-20c-11.046,0-20,8.954-20,20v41c0,11.046,8.954,20,20,20h29
				c11.046,0,20-8.954,20-20C440,379.954,431.046,371,420,371z"/>
			<circle cx="299" cy="210" r="20"/>
			<circle cx="212" cy="297" r="20"/>
			<circle cx="125" cy="210" r="20"/>
			<circle cx="125" cy="297" r="20"/>
			<circle cx="125" cy="384" r="20"/>
			<circle cx="212" cy="384" r="20"/>
			<circle cx="212" cy="210" r="20"/>
		</g>
	</g>
</g>
<g>
</g>
<g>
</g>
<g>
</g>
<g>
</g>
<g>
</g>
<g>
</g>
<g>
</g>
<g>
</g>
<g>
</g>
<g>
</g>
<g>
</g>
<g>
</g>
<g>
</g>
<g>
</g>
<g>
</g>
</symbol><symbol id="cathedral-of-saint-basil" viewBox="0 0 512 512">
<g>
	<g>
		<g>
			<path d="M298.667,204.8c-4.71,0-8.533,3.823-8.533,8.533c0,4.71,3.823,8.533,8.533,8.533v14.216
				c-5.999,8.602-12.851,16.282-19.575,23.637C266.701,273.246,256,284.937,256,298.667c0,11.11,7.151,20.489,17.067,24.021v52.779
				h-59.733c-4.71,0-8.533,3.823-8.533,8.533s3.823,8.533,8.533,8.533H281.6c4.71,0,8.533-3.823,8.533-8.533v-59.733h34.133v8.533
				c0,4.71,3.823,8.533,8.533,8.533c4.71,0,8.533-3.823,8.533-8.533v-10.103c9.916-3.541,17.067-12.92,17.067-24.03
				c0-13.73-10.701-25.421-23.091-38.946c-6.724-7.356-13.576-15.036-19.575-23.637v-14.216c4.71,0,8.533-3.823,8.533-8.533
				c0-4.71-3.823-8.533-8.533-8.533c0-4.71-3.823-8.533-8.533-8.533S298.667,200.09,298.667,204.8z M322.722,271.241
				c9.574,10.453,18.611,20.326,18.611,27.426c0,4.702-3.831,8.533-8.533,8.533h-51.2c-4.702,0-8.533-3.831-8.533-8.533
				c0-7.1,9.037-16.973,18.611-27.426c4.958-5.419,10.368-11.332,15.522-17.852C312.354,259.908,317.764,265.822,322.722,271.241z"/>
			<path d="M503.467,494.933H460.8V435.2c0-4.71-3.823-8.533-8.533-8.533h-8.533V315.733c0-4.71-3.823-8.533-8.533-8.533h-8.533
				v-35.703c9.916-3.541,17.067-12.919,17.067-24.03c0-13.73-10.701-25.421-23.091-38.946c-6.724-7.356-13.577-15.036-19.575-23.637
				v-14.217c4.71,0,8.533-3.823,8.533-8.533c0-4.71-3.823-8.533-8.533-8.533c0-4.71-3.823-8.533-8.533-8.533
				c-4.71,0-8.533,3.823-8.533,8.533c-4.71,0-8.533,3.823-8.533,8.533c0,4.71,3.823,8.533,8.533,8.533v14.217
				c-5.999,8.602-12.851,16.282-19.575,23.637c-12.39,13.525-23.091,25.216-23.091,38.946c0,14.114,11.486,25.6,25.6,25.6H409.6
				V307.2h-34.133c-4.71,0-8.533,3.823-8.533,8.533s3.823,8.533,8.533,8.533h42.667h8.533V435.2c0,4.71,3.823,8.533,8.533,8.533
				h8.533v51.2H409.6v-76.8c0-4.71-3.823-8.533-8.533-8.533s-8.533,3.823-8.533,8.533v8.533h-19.686l-23.518-62.729
				c-1.254-3.328-4.437-5.538-7.996-5.538c-3.558,0-6.741,2.21-7.996,5.538l-23.518,62.729h-19.686v-8.533
				c0-4.71-3.823-8.533-8.533-8.533s-8.533,3.823-8.533,8.533v76.8H51.2v-51.2h8.533c4.71,0,8.533-3.823,8.533-8.533v-17.067
				c0-4.71-3.823-8.533-8.533-8.533c-4.702,0-8.533-3.831-8.533-8.533c0-7.1,9.028-16.964,18.586-27.409
				c2.773-3.029,5.658-6.187,8.533-9.481c3.106-3.55,2.739-8.943-0.811-12.041c-3.55-3.089-8.943-2.731-12.049,0.819
				c-2.782,3.191-5.572,6.238-8.269,9.182c-12.373,13.525-23.057,25.207-23.057,38.929c0,11.127,7.134,20.617,17.067,24.141v1.459
				h-8.533c-4.71,0-8.533,3.823-8.533,8.533v59.733h-25.6c-4.71,0-8.533,3.823-8.533,8.533S3.823,512,8.533,512h494.933
				c4.71,0,8.533-3.823,8.533-8.533S508.177,494.933,503.467,494.933z M418.133,256h-51.2c-4.702,0-8.533-3.831-8.533-8.533
				c0-7.1,9.037-16.973,18.611-27.426c4.958-5.419,10.368-11.332,15.522-17.852c5.154,6.519,10.564,12.433,15.522,17.852
				c9.574,10.453,18.611,20.326,18.611,27.426C426.667,252.169,422.835,256,418.133,256z M341.333,391.236l13.286,35.43h-26.573
				L341.333,391.236z M392.533,494.933h-17.067v-25.6c0-4.71-3.823-8.533-8.533-8.533s-8.533,3.823-8.533,8.533v25.6h-34.133v-25.6
				c0-4.71-3.823-8.533-8.533-8.533s-8.533,3.823-8.533,8.533v25.6h-17.067v-51.2h76.774h0.026h0.026h25.574V494.933z"/>
			<path d="M230.4,170.667c-4.71,0-8.533,3.823-8.533,8.533s3.823,8.533,8.533,8.533h68.267c4.71,0,8.533-3.823,8.533-8.533
				s-3.823-8.533-8.533-8.533h-0.998l-6.639-53.052c9.455-3.772,16.171-12.971,16.171-23.748c0-9.062-4.668-15.804-10.069-23.612
				c-8.064-11.639-19.098-27.588-24.149-62.933C272.375,3.123,268.783,0,264.533,0c-4.25,0-7.842,3.123-8.448,7.322
				C251.034,42.667,240,58.615,231.936,70.255c-5.402,7.808-10.069,14.549-10.069,23.612c0,10.778,6.716,19.977,16.171,23.748
				l-6.639,53.052H230.4z M248.602,170.667l6.4-51.2h19.063l6.4,51.2H248.602z M245.965,79.974
				c5.419-7.834,12.612-18.219,18.569-34.867c5.956,16.649,13.15,27.034,18.569,34.867c4.617,6.673,7.031,10.325,7.031,13.892
				c0,4.702-3.831,8.533-8.533,8.533h-34.133c-4.702,0-8.533-3.831-8.533-8.533C238.933,90.3,241.348,86.647,245.965,79.974z"/>
			<path d="M68.267,297.088v18.645c0,4.71,3.823,8.533,8.533,8.533s8.533-3.823,8.533-8.533v-17.067c4.71,0,8.533-3.823,8.533-8.533
				s-3.823-8.533-8.533-8.533H76.8c-4.702,0-8.533-3.831-8.533-8.533c0-7.1,9.037-16.973,18.611-27.426
				c4.975-5.444,10.411-11.375,15.582-17.92c0.179,0.222,0.35,0.444,0.521,0.657c2.91,3.712,8.277,4.352,11.981,1.451
				c3.703-2.91,4.352-8.277,1.442-11.981c-1.63-2.082-3.695-4.779-5.47-7.262v-14.319c4.71,0,8.533-3.823,8.533-8.533
				s-3.823-8.533-8.533-8.533c0-4.71-3.823-8.533-8.533-8.533c-4.71,0-8.533,3.823-8.533,8.533c-4.71,0-8.533,3.823-8.533,8.533
				s3.823,8.533,8.533,8.533v14.217c-5.999,8.602-12.851,16.282-19.576,23.637C61.901,247.646,51.2,259.337,51.2,273.067
				C51.2,284.177,58.351,293.555,68.267,297.088z"/>
			<path d="M128,256v14.217c-5.999,8.602-12.851,16.282-19.575,23.637c-12.39,13.525-23.091,25.216-23.091,38.946
				c0,11.11,7.151,20.489,17.067,24.021V435.2c0,4.71,3.823,8.533,8.533,8.533s8.533-3.823,8.533-8.533v-76.8H153.6v76.8
				c0,4.71,3.823,8.533,8.533,8.533h51.2c4.71,0,8.533-3.823,8.533-8.533s-3.823-8.533-8.533-8.533h-42.667V356.83
				c9.916-3.541,17.067-12.919,17.067-24.03c0-13.73-10.701-25.421-23.091-38.946c-6.724-7.356-13.577-15.036-19.576-23.637V256
				c4.71,0,8.533-3.823,8.533-8.533s-3.823-8.533-8.533-8.533c0-4.71-3.823-8.533-8.533-8.533S128,234.223,128,238.933
				c-4.71,0-8.533,3.823-8.533,8.533S123.29,256,128,256z M136.533,287.522c5.154,6.519,10.564,12.433,15.522,17.852
				c9.574,10.453,18.611,20.326,18.611,27.426c0,4.702-3.831,8.533-8.533,8.533h-51.2c-4.702,0-8.533-3.831-8.533-8.533
				c0-7.1,9.037-16.973,18.611-27.426C125.969,299.955,131.379,294.042,136.533,287.522z"/>
			<path d="M150.733,224.205c3.746,2.859,9.097,2.15,11.955-1.604c3.328-4.352,7.202-8.585,11.315-13.073
				c4.318-4.71,9.02-9.839,13.747-15.846c5.146,6.511,10.556,12.416,15.505,17.826c9.574,10.453,18.611,20.326,18.611,27.426
				c0,4.702-3.831,8.533-8.533,8.533H179.2c-4.71,0-8.533,3.823-8.533,8.533s3.823,8.533,8.533,8.533h25.6v85.333
				c0,4.71,3.823,8.533,8.533,8.533c4.71,0,8.533-3.823,8.533-8.533v-86.904c9.916-3.541,17.067-12.919,17.067-24.03
				c0-13.73-10.701-25.421-23.091-38.946c-6.724-7.356-13.577-15.036-19.576-23.637v-14.216c4.71,0,8.533-3.823,8.533-8.533
				c0-4.71-3.823-8.533-8.533-8.533c0-4.71-3.823-8.533-8.533-8.533s-8.533,3.823-8.533,8.533c-4.71,0-8.533,3.823-8.533,8.533
				c0,4.71,3.823,8.533,8.533,8.533v14.344c-5.845,8.405-11.904,15.104-17.775,21.521c-4.386,4.779-8.516,9.293-12.297,14.242
				C146.27,215.987,146.987,221.338,150.733,224.205z"/>
		</g>
	</g>
</g>
<g>
</g>
<g>
</g>
<g>
</g>
<g>
</g>
<g>
</g>
<g>
</g>
<g>
</g>
<g>
</g>
<g>
</g>
<g>
</g>
<g>
</g>
<g>
</g>
<g>
</g>
<g>
</g>
<g>
</g>
</symbol><symbol id="dance" viewBox="-16 0 511 511.70192"><path d="m51.753906 198.050781v109.226563l-31.699218 31.828125c-14.609376 14.65625-18.960938 36.664062-11.03125 55.773437 7.933593 19.113282 26.585937 31.570313 47.277343 31.574219h.105469l38.015625-.085937v55.46875c0 16.496093 13.371094 29.867187 29.867187 29.867187 16.492188 0 29.867188-13.371094 29.867188-29.867187v-58.410157c10.40625-4.902343 17.050781-15.375 17.050781-26.882812 0-11.503907-6.644531-21.976563-17.050781-26.878907v-92.851562l47.214844-24.90625c7.210937-3.804688 12.183594-10.8125 13.382812-18.875 1.203125-8.066406-1.507812-16.21875-7.300781-21.957031l-45.847656-45.417969c-7.972657-7.941406-18.777344-12.386719-30.03125-12.355469h-45.089844c-4.519531.007813-8.855469-1.785156-12.046875-4.980469l-22.683594-22.625v-6.824218c-.636718-12.445313.222656-24.917969 2.558594-37.15625 2.269531-9.699219 5.625-19.109375 10.003906-28.058594 1.167969-2.246094 2.453125-4.433594 3.847656-6.550781 5.570313-7.101563 8.683594-15.824219 8.867188-24.851563-1.285156-12.699218-12.023438-22.3398435-24.789062-22.253906h-.171876c-10.984374.0585938-21.804687 7.550781-30.464843 21.035156-6.234375 10.398438-10.921875 21.65625-13.910157 33.40625-5.691406 23.261719-8.09375 47.207032-7.140624 71.136719-.039063 13.574219 5.351562 26.601563 14.96875 36.179687zm72.535156 296.585938c-7.070312 0-12.800781-5.730469-12.800781-12.800781v-55.46875h25.597657v55.46875c0 7.070312-5.730469 12.800781-12.796876 12.800781zm26.136719-89.0625c-1.746093 1.730469-3.957031 2.914062-6.367187 3.410156-.890625.191406-1.792969.296875-2.703125.316406h-38.402344l-46.566406.085938h-.085938c-13.792969 0-26.234375-8.304688-31.523437-21.046875-5.289063-12.738282-2.390625-27.414063 7.351562-37.183594l34.175782-34.289062c.777343-.789063 1.394531-1.722657 1.816406-2.746094.375-.941406.578125-1.945313.597656-2.960938 0-.101562.058594-.1875.058594-.289062v-3.96875h68.269531v59.734375h-25.558594v-27.761719c0-5.175781-3.121093-9.84375-7.90625-11.824219-4.78125-1.980469-10.289062-.882812-13.949219 2.78125l-32.015624 32.015625c-3.664063 3.660156-4.757813 9.164063-2.78125 13.949219 1.980468 4.785156 6.648437 7.902344 11.824218 7.90625h74.695313c.859375.015625 1.714843.105469 2.558593.261719 4.617188.945312 8.34375 4.355468 9.695313 8.871094 1.351563 4.515624.113281 9.410156-3.226563 12.738281zm-6.605469-161.871094 8.78125 14.628906-10.964843 5.785157c-.195313.101562-.480469.28125-.761719.46875l-2.386719 1.226562c-4.191406 2.160156-9.339843.539062-11.539062-3.632812-.640625-1.207032-.96875-2.550782-.953125-3.917969.023437-1.015625.234375-2.019531.621094-2.960938.644531-2.003906 2.074218-3.664062 3.960937-4.597656zm-49.398437 122.933594h-17.460937l17.460937-17.460938zm19.0625-196.269531-10.53125 17.554687-10.527344-17.554687zm-51.097656-9.964844c2.25 2.175781 4.789062 4.035156 7.542969 5.519531.050781.09375.050781.207031.113281.308594l21.9375 36.566406c2.3125 3.851563 6.480469 6.210937 10.972656 6.210937 4.496094 0 8.660156-2.359374 10.976563-6.210937l19.359374-32.265625c6.132813.359375 11.925782 2.9375 16.300782 7.253906l45.847656 45.40625c1.949219 1.910156 2.867188 4.636719 2.46875 7.335938-.398438 2.703125-2.0625 5.050781-4.480469 6.316406l-25.703125 13.515625-8.796875-14.640625 8.933594-4.730469c2.394531-1.261719 4.046875-3.589843 4.453125-6.269531.40625-2.675781-.484375-5.390625-2.398438-7.304688l-18.25-18.253906c-.796874-.796875-1.742187-1.425781-2.785156-1.851562-2.628906-1.085938-5.628906-.792969-7.996094.789062-2.367187 1.582032-3.792968 4.238282-3.796874 7.085938v22.769531l-14.386719 7.609375c-8.355469 4.519531-13.625 13.199219-13.773438 22.699219-.007812 4.164062 1.007813 8.269531 2.964844 11.945312 4.894531 9.179688 14.84375 14.503907 25.195313 13.484375v6.144532h-68.265626v-95.316407c0-2.261719-.894531-4.425781-2.492187-6.027343l-38.730469-38.792969c-6.414062-6.386719-10.003906-15.070313-9.976562-24.121094-.90625-22.335937 1.277344-44.6875 6.492187-66.425781.660157-2.320313 1.375-4.726563 2.167969-7.175782l16.742188 8.371094c-2.125 5.71875-3.898438 11.558594-5.304688 17.492188-2.664062 13.539062-3.679688 27.34375-3.03125 41.125v7.226562c-.011719 4.21875 1.664062 8.265625 4.660156 11.238282zm-10.238281-143.359375h.050781c3.917969-.128907 7.292969 2.738281 7.796875 6.628906-.8125 5.246094-2.976563 10.191406-6.277344 14.34375-1.445312 2.296875-2.765625 4.496094-3.910156 6.640625l-17.066406-8.535156c1.015624-1.980469 2.054687-3.949219 3.25-5.828125 5.265624-8.257813 11.316406-13.199219 16.1875-13.226563zm0 0"/><path d="m60.289062 97.835938c0 25.917968 21.011719 46.933593 46.933594 46.933593 25.917969 0 46.933594-21.015625 46.933594-46.933593 0-25.921876-21.015625-46.933594-46.933594-46.933594-25.910156.027344-46.90625 21.023437-46.933594 46.933594zm46.933594-29.867188c16.492188 0 29.863282 13.371094 29.863282 29.867188 0 16.496093-13.371094 29.867187-29.863282 29.867187-16.496094 0-29.867187-13.371094-29.867187-29.867187 0-16.496094 13.371093-29.867188 29.867187-29.867188zm0 0"/><path d="m337.621094 153.300781c5.699218.03125 11.351562-1.023437 16.65625-3.105469 22.191406-8.425781 34.601562-32.089843 28.90625-55.136718-5.695313-23.042969-27.695313-38.207032-51.257813-35.328125-23.5625 2.882812-41.265625 22.902343-41.238281 46.636719-.019531 5.363281.894531 10.6875 2.707031 15.738281 6.667969 18.699219 24.371094 31.1875 44.226563 31.195312zm0-76.800781c14.386718.066406 26.679687 10.378906 29.25 24.535156 2.566406 14.152344-5.316406 28.128906-18.761719 33.246094-3.339844 1.316406-6.898437 1.980469-10.488281 1.953125-12.652344.003906-23.933594-7.964844-28.160156-19.890625-1.144532-3.199219-1.722657-6.574219-1.707032-9.976562 0-7.917969 3.148438-15.515626 8.75-21.117188 5.597656-5.601562 13.195313-8.75 21.117188-8.75zm0 0"/><path d="m215.730469 336.367188c-3.746094 3.410156-5.785157 8.304687-5.566407 13.363281.21875 5.0625 2.675782 9.761719 6.703126 12.835937l7.839843 5.972656c.347657.3125.71875.597657 1.109375.851563 1.707032 1.09375 3.414063 2.082031 5.121094 3.089844v109.355469c0 16.496093 13.371094 29.867187 29.867188 29.867187 16.492187 0 29.867187-13.371094 29.867187-29.867187v-90.609376c6.199219.65625 12.425781 1 18.660156 1.027344 19.496094-.234375 38.894531-2.8125 57.773438-7.679687l56.8125 98.515625c6.050781 10.457031 17.804687 16.234375 29.78125 14.648437 11.972656-1.589843 21.8125-10.238281 24.925781-21.910156 2.074219-7.632813.996094-15.78125-2.984375-22.613281l-51.117187-88.578125c1.707031-.773438 3.414062-1.550781 4.839843-2.242188 4.847657-2.328125 8.3125-6.808593 9.351563-12.085937 1.039062-5.273438-.46875-10.730469-4.070313-14.726563l-35.539062-39.441406c5.617187 1 11.410156.070313 16.433593-2.636719 7.40625-3.960937 12.414063-11.285156 13.414063-19.625l5.53125-47.191406c1.722656-14.679688-6.199219-28.804688-19.628906-34.984375l-59.910157-27.640625c-7.464843-3.441406-15.917968-4.074219-23.808593-1.785156l-28.605469 8.3125c-1.8125.53125-3.769531.246094-5.359375-.777344-1.660156-1.074219-2.757813-2.832031-2.992187-4.792969l-22.792969-127.097656c-1.980469-12.519531-12.738281-21.765625-25.414063-21.835937-.972656 0-2.054687.09375-3.796875.273437-13.976562 2.257813-23.527343 15.347656-21.417969 29.347656l24.3125 140.6875c1.191407 6.898438 2.730469 13.734375 4.613282 20.480469l12.84375 45.789062c5.710937 20.09375-.492188 41.6875-16 55.6875zm57.890625 145.46875c0 7.070312-5.730469 12.800781-12.800782 12.800781-7.070312 0-12.800781-5.730469-12.800781-12.800781v-100.914063c2.628907 1.066406 5.273438 2.046875 7.929688 2.917969h.050781l.273438.101562h.074218c2.117188.777344 4.269532 1.425782 6.394532 2.046875 3.558593 1.023438 7.191406 1.910157 10.878906 2.679688zm188.535156-10.367188c-1.335938 5-5.550781 8.703125-10.679688 9.382812-5.128906.683594-10.167968-1.792968-12.761718-6.269531l-54.613282-94.71875c8.226563-2.511719 16.410157-5.378906 24.550782-8.601562l52.25 90.554687c1.695312 2.917969 2.144531 6.394532 1.253906 9.652344zm-224.554688-428.453125c-.734374-4.574219 2.320313-8.902344 6.878907-9.742187 2.324219-.367188 4.699219.21875 6.59375 1.617187s3.148437 3.5 3.484375 5.832031l22.816406 127.085938c1.015625 6.738281 4.890625 12.710937 10.628906 16.386718 5.742188 3.671876 12.789063 4.691407 19.332032 2.789063l28.605468-8.304687c3.953125-1.175782 8.199219-.875 11.945313.855468l59.886719 27.628906c6.703124 3.09375 10.65625 10.152344 9.796874 17.484376l-5.523437 47.171874c-.335937 2.808594-2.019531 5.277344-4.511719 6.613282-2.550781 1.363281-5.617187 1.339844-8.148437-.058594-3.171875-1.898438-4.863281-5.542969-4.269531-9.191406l1.375-11.519532 2.679687-22.699218c.882813-7.339844-3.078125-14.410156-9.796875-17.492188l-30.054688-13.824218c-3.582031-1.65625-7.738281-1.539063-11.21875.324218-12.695312-6.832031-27.9375-6.964844-40.75-.359375-13.082031-5.582031-27.800781-5.976562-41.164062-1.101562l-.066406-.238281c-1.742188-6.179688-3.164063-12.445313-4.269532-18.773438zm135.269532 223.925781-12.3125-43.957031 21.625 9.960937-2.691406 22.6875-1.363282 11.519532c0 .164062.050782.316406.042969.480468h-.101563c-.179687 1.683594-.207031 3.378907-.085937 5.066407zm-93.867188-18.886718-8.070312-28.746094c9.65625-4.261719 20.671875-4.195313 30.277344.1875 4.570312 1.742187 9.675781 1.394531 13.96875-.949219 8.597656-4.183594 18.746093-3.636719 26.84375 1.453125l14.976562 53.453125c0 .074219.078125.132813.101562.21875.121094.292969.257813.578125.410157.855469.285156.679687.660156 1.320312 1.109375 1.902344.09375.109374.121094.253906.214844.367187l63.164062 70.210937c-3.5 1.707032-7.859375 3.660157-12.972656 5.8125-12.964844 5.546876-26.304688 10.164063-39.925782 13.816407-32.972656 10.230469-68.109374 11.277343-101.632812 3.027343-1.84375-.535156-3.6875-1.066406-5.84375-1.875-9.210938-3.046874-18-7.234374-26.164062-12.46875l-8.246094-6.28125 30.824218-28.023437c20.335938-18.34375 28.457032-46.660156 20.941407-72.992187zm0 0"/></symbol><symbol id="family" viewBox="0 0 511.997 511.997">
<g>
	<g>
		<path d="M157.897,185.906c-3.217-2.609-7.939-2.117-10.549,1.101c-3.03,3.736-7.047,5.793-11.313,5.793
			c-4.266,0-8.283-2.058-11.313-5.793c-2.609-3.217-7.333-3.709-10.549-1.101c-3.217,2.609-3.71,7.332-1.101,10.549
			c5.847,7.21,14.217,11.345,22.963,11.345c8.746,0,17.115-4.135,22.963-11.345C161.607,193.238,161.114,188.515,157.897,185.906z"/>
	</g>
</g>
<g>
	<g>
		<path d="M101.759,141.386c-4.142,0-7.5,3.358-7.5,7.5v8.569c0,4.142,3.358,7.5,7.5,7.5c4.142,0,7.5-3.358,7.5-7.5v-8.569
			C109.259,144.744,105.901,141.386,101.759,141.386z"/>
	</g>
</g>
<g>
	<g>
		<path d="M170.311,141.386c-4.142,0-7.5,3.358-7.5,7.5v8.569c0,4.142,3.357,7.5,7.5,7.5c4.142,0,7.5-3.358,7.5-7.5v-8.569
			C177.811,144.744,174.453,141.386,170.311,141.386z"/>
	</g>
</g>
<g>
	<g>
		<path d="M406.397,228.75c-3.217-2.609-7.94-2.117-10.549,1.101c-3.03,3.735-7.048,5.793-11.313,5.793
			c-4.266,0-8.283-2.058-11.313-5.793c-2.608-3.217-7.332-3.71-10.549-1.101c-3.217,2.609-3.709,7.332-1.1,10.549
			c5.846,7.211,14.216,11.345,22.962,11.345c8.746,0,17.115-4.135,22.962-11.345C410.106,236.082,409.614,231.359,406.397,228.75z"/>
	</g>
</g>
<g>
	<g>
		<path d="M350.259,184.231c-4.142,0-7.5,3.358-7.5,7.5v8.569c0,4.142,3.358,7.5,7.5,7.5c4.142,0,7.5-3.358,7.5-7.5v-8.569
			C357.759,187.589,354.401,184.231,350.259,184.231z"/>
	</g>
</g>
<g>
	<g>
		<path d="M418.811,184.231c-4.142,0-7.5,3.358-7.5,7.5v8.569c0,4.142,3.357,7.5,7.5,7.5c4.142,0,7.5-3.358,7.5-7.5v-8.569
			C426.311,187.589,422.953,184.231,418.811,184.231z"/>
	</g>
</g>
<g>
	<g>
		<path d="M491.126,332.545l-58.757-23.503c-0.318-0.127-0.612-0.289-0.91-0.445c40.583-9.234,59.803-24.676,60.656-25.375
			c2.029-1.663,3.042-4.265,2.671-6.862c-0.085-0.594-8.494-60.135-8.494-118.904c0-56.11-45.649-101.759-101.759-101.759
			c-56.11,0-101.758,45.648-101.758,101.759c0,15.374-0.698,34.178-1.834,51.979l-16.373,8.187l-48.06-24.029
			c-0.138-0.069-0.283-0.119-0.424-0.179c2.286-6.663,3.781-13.689,4.33-20.98c10.053-3.106,17.378-12.487,17.378-23.547
			c0-7.449-3.328-14.131-8.569-18.653v-49.9c0-13.785-6.965-26.683-18.387-34.433c-3.87-14.38-16.79-24.481-31.958-24.481h-68.552
			c-37.21,0-67.483,30.273-67.483,67.483v41.33c-5.241,4.521-8.569,11.204-8.569,18.653c0,11.06,7.325,20.441,17.378,23.547
			c1.894,25.179,14.87,47.302,34.036,61.54v20.73L23.664,273.31C9.51,277.557,0,290.338,0,305.116v83.701c0,4.142,3.358,7.5,7.5,7.5
			h1.069v86.759c0,4.142,3.358,7.5,7.5,7.5c4.142,0,7.5-3.358,7.5-7.5v-86.759h27.845v86.759c0,4.142,3.358,7.5,7.5,7.5
			c4.142,0,7.5-3.358,7.5-7.5v-129.32c0-6.578-1.929-12.948-5.577-18.42l-12.82-19.23c-2.298-3.447-6.955-4.377-10.4-2.081
			c-3.447,2.297-4.378,6.954-2.08,10.401l12.82,19.231c2,3,3.058,6.492,3.058,10.099v27.561H16.069H15v-76.201
			c0-8.103,5.214-15.11,12.976-17.439l25.747-7.724c8.966,37.542,43.017,64.95,82.312,64.95c14.117,0,27.827-3.481,40.104-10.105
			c4.487,6.121,11.724,10.105,19.878,10.105h1.069v1.069c0,25.143,13.832,47.103,34.276,58.712v12.233
			c0,0.46-0.294,0.868-0.731,1.014l-27.977,9.326c-13.581,4.527-22.706,17.187-22.706,31.503v24.316c0,4.142,3.358,7.5,7.5,7.5
			c4.142,0,7.5-3.358,7.5-7.5V458.76c0-7.849,5.003-14.791,12.449-17.272l8.227-2.743c10.884,16.232,29.189,26.125,48.944,26.125
			c19.776,0,38.064-9.887,48.946-26.124l8.225,2.742c7.446,2.482,12.449,9.423,12.449,17.272v24.316c0,4.142,3.358,7.5,7.5,7.5
			c4.142,0,7.5-3.358,7.5-7.5V458.76c0-14.316-9.125-26.976-22.706-31.502l-27.977-9.326c-0.437-0.146-0.731-0.553-0.731-1.014
			v-12.233c15.307-8.692,26.893-23.188,31.753-40.481c14.173,14.83,33.968,23.546,55.005,23.546
			c33.212,0,62.353-21.469,72.391-52.728l28.629,11.451c6.953,2.781,11.445,9.417,11.445,16.904v35.079h-1.069h-26.776v-9.638
			c0-4.142-3.358-7.5-7.5-7.5c-4.142,0-7.5,3.358-7.5,7.5v94.259c0,4.142,3.358,7.5,7.5,7.5c4.142,0,7.5-3.358,7.5-7.5v-69.621
			h19.276v69.621c0,4.142,3.358,7.5,7.5,7.5c4.142,0,7.5-3.358,7.5-7.5v-69.621h1.069c1.989,0,3.896-0.79,5.303-2.196
			c1.407-1.407,2.197-3.314,2.197-5.304v-42.579C512,349.719,503.807,337.617,491.126,332.545z M297.776,157.455
			c0-47.839,38.92-86.759,86.759-86.759c47.839,0,86.758,38.92,86.758,86.759c0,50.363,6.065,101.274,8.036,116.479
			c-6.721,4.397-23.929,14.081-53.018,20.445v-11.935c3.984-2.258,7.798-4.835,11.384-7.733
			c14.758-11.929,25.187-28.636,29.363-47.042c1.392-6.133,2.098-12.458,2.098-18.799c0-42.391-30.657-48.477-60.305-54.363
			c-18.865-3.745-38.372-7.618-53.906-20.045c-2.251-1.801-5.335-2.152-7.934-0.903c-2.599,1.249-4.251,3.876-4.251,6.76
			c0,0.199-0.327,19.933-28.595,27c-4.019,1.005-6.462,5.077-5.457,9.096c1.004,4.019,5.077,6.46,9.095,5.457
			c23.66-5.915,33.312-19.188,37.248-29.16c16.264,9.638,34.483,13.254,50.879,16.509c31.689,6.291,48.226,10.912,48.226,39.65
			c0,5.226-0.581,10.434-1.726,15.48c-3.435,15.134-12.016,28.876-24.165,38.696c-12.5,10.104-27.622,15.444-43.73,15.444
			c-14.684,0-28.659-4.504-40.519-13.015c-4.345-11.859-11.324-22.709-20.533-31.649v-33.525c0-2.6-1.346-5.014-3.557-6.38
			c-2.211-1.366-4.971-1.491-7.297-0.328l-16.193,8.096C297.324,186.071,297.776,171.221,297.776,157.455z M308.483,212.435v27.143
			l-27.144-13.571L308.483,212.435z M220.655,212.435l27.143,13.572l-27.143,13.571V212.435z M179.948,294.558v7.123
			c-5.37,4.637-8.569,11.423-8.569,18.583c-10.682,6.311-22.817,9.639-35.345,9.639c-32.624,0-60.849-22.958-67.91-54.27
			l18.529-5.559c4.571,23.088,24.972,40.553,49.382,40.553c19.383,0,36.231-11.017,44.641-27.112
			C180.195,287.157,179.948,290.845,179.948,294.558z M100.69,260.27v-17.373c10.762,4.97,22.734,7.747,35.345,7.747
			c12.61,0,24.583-2.778,35.345-7.746v17.383c0,19.489-15.855,35.345-35.345,35.345c-19.457,0-35.29-15.804-35.343-35.249
			C100.692,260.341,100.69,260.305,100.69,260.27z M136.035,235.644c-38.39,0-69.621-31.231-69.621-69.62c0-4.142-3.358-7.5-7.5-7.5
			c-5.314,0-9.638-4.324-9.638-9.638c0-5.314,4.323-9.638,9.638-9.638h17.138c3.228,0,6.094-2.065,7.115-5.128l6.884-20.652
			c17.235-0.389,70.664-2.812,100.751-17.856c3.705-1.853,5.207-6.357,3.354-10.062c-1.852-3.705-6.356-5.207-10.062-3.354
			c-32.281,16.14-98.807,16.346-99.475,16.346c-3.228,0.001-6.094,2.066-7.114,5.129l-6.859,20.578H58.914
			c-0.358,0-0.714,0.012-1.069,0.027V88.903c0-28.939,23.544-52.483,52.483-52.483h68.552c8.956,0,16.48,6.455,17.893,15.347
			c0.359,2.26,1.73,4.232,3.723,5.356c8.468,4.776,13.729,13.669,13.729,23.21v43.941c-0.355-0.016-0.71-0.027-1.069-0.027h-8.569
			c-4.142,0-7.5,3.358-7.5,7.5c0,4.142,3.358,7.5,7.5,7.5h8.569c5.314,0,9.638,4.323,9.638,9.638s-4.323,9.638-9.638,9.638
			c-4.142,0-7.5,3.358-7.5,7.5C205.656,204.412,174.425,235.644,136.035,235.644z M186.379,260.283v-26.31
			c7.461-5.543,13.982-12.276,19.276-19.928v19.781c-8.399,8.154-14.946,17.895-19.329,28.543
			C186.355,261.676,186.379,260.982,186.379,260.283z M298.548,433.756c-8.257,10.087-20.661,16.113-33.979,16.113
			c-13.302,0-25.714-6.03-33.974-16.114l4.78-1.593c6.572-2.19,10.988-8.317,10.988-15.244v-5.978
			c5.796,1.627,11.898,2.516,18.207,2.516c6.309,0,12.411-0.889,18.207-2.516v5.978c-0.001,6.926,4.414,13.053,10.987,15.243
			L298.548,433.756z M324.553,329.903c-4.142,0-7.5,3.358-7.5,7.5v7.457c0,0.065-0.001,0.13,0,0.195v0.917
			c-0.001,28.939-23.545,52.483-52.484,52.483c-28.939,0-52.482-23.544-52.482-52.483v-8.569c0-4.142-3.358-7.5-7.5-7.5h-8.569
			c-5.314,0-9.638-4.323-9.638-9.638c0-3.42,1.81-6.515,4.841-8.279c0.677-0.394,1.266-0.893,1.776-1.457
			c18.54-0.537,78.639-4.026,118.138-26.597c3.596-2.055,4.846-6.636,2.791-10.233c-2.055-3.597-6.638-4.846-10.233-2.791
			c-34.602,19.772-88.974,23.731-108.744,24.522v-0.872c0-13.949,4.224-27.458,11.878-38.847c0.599,0.949,1.4,1.773,2.386,2.382
			c1.205,0.744,2.572,1.12,3.943,1.12c1.146,0,2.295-0.263,3.354-0.792l48.06-24.03l48.06,24.03
			c1.059,0.529,2.208,0.792,3.354,0.792c1.372,0,2.739-0.376,3.943-1.12c0.985-0.609,1.786-1.434,2.385-2.382
			c7.654,11.389,11.878,24.898,11.878,38.847v10.946c0,2.67,1.419,5.139,3.728,6.482c3.032,1.765,4.842,4.859,4.842,8.279
			c0,5.314-4.324,9.638-9.638,9.638H324.553z M384.535,372.748c-20.764,0-40.028-10.571-51.242-27.849
			c13.506-0.093,24.466-11.106,24.466-24.633c0-7.16-3.199-13.947-8.569-18.584v-7.123c0-3.019-0.163-6.021-0.482-8.995
			c11.121,5.214,23.263,7.925,35.827,7.925c9.145,0,18.189-1.515,26.776-4.379v10.983c0,10.133,6.079,19.113,15.487,22.876
			l16.173,6.469C435.22,355.066,411.55,372.748,384.535,372.748z"/>
	</g>
</g>
<g>
	<g>
		<path d="M286.432,357.285c-3.217-2.609-7.94-2.117-10.549,1.101c-3.031,3.736-7.048,5.793-11.313,5.793
			c-4.265,0-8.283-2.057-11.313-5.793c-2.609-3.217-7.333-3.71-10.549-1.101c-3.217,2.609-3.71,7.332-1.101,10.549
			c5.848,7.209,14.217,11.345,22.963,11.345c8.746,0,17.115-4.135,22.963-11.344C290.141,364.618,289.648,359.894,286.432,357.285z"/>
	</g>
</g>
<g>
	<g>
		<circle cx="239" cy="328.868" r="7.5"/>
	</g>
</g>
<g>
	<g>
		<circle cx="290" cy="328.868" r="7.5"/>
	</g>
</g>
<g>
</g>
<g>
</g>
<g>
</g>
<g>
</g>
<g>
</g>
<g>
</g>
<g>
</g>
<g>
</g>
<g>
</g>
<g>
</g>
<g>
</g>
<g>
</g>
<g>
</g>
<g>
</g>
<g>
</g>
</symbol><symbol id="guitar" viewBox="0 0 480.002 480.002">
<g>
	<g>
		<path d="M265.141,304h-48c-4.418,0-8,3.582-8,8s3.582,8,8,8h48c4.418,0,8-3.582,8-8S269.559,304,265.141,304z"/>
	</g>
</g>
<g>
	<g>
		<path d="M265.141,336h-48c-4.418,0-8,3.582-8,8s3.582,8,8,8h48c4.418,0,8-3.582,8-8S269.559,336,265.141,336z"/>
	</g>
</g>
<g>
	<g>
		<path d="M265.141,368h-48c-4.418,0-8,3.582-8,8s3.582,8,8,8h48c4.418,0,8-3.582,8-8S269.559,368,265.141,368z"/>
	</g>
</g>
<g>
	<g>
		<path d="M470.485,77.392c-0.94-2.897-3.442-5.009-6.456-5.448l-33.752-4.904l-15.088-30.576c-1.953-3.963-6.749-5.593-10.712-3.64
			c-1.581,0.779-2.861,2.059-3.64,3.64L385.741,67.04l-33.752,4.904c-4.374,0.623-7.415,4.674-6.791,9.049
			c0.25,1.753,1.074,3.373,2.343,4.607l18.576,18.104l-42.648,42.648c-3.178,3.07-3.266,8.134-0.196,11.312
			c3.07,3.178,8.134,3.266,11.312,0.196c0.067-0.064,0.132-0.13,0.196-0.196l34.888-34.888l-3.472,20.24
			c-0.746,4.355,2.179,8.49,6.534,9.236c1.734,0.297,3.517,0.014,5.074-0.804l30.192-15.864l30.184,15.864
			c3.911,2.056,8.748,0.553,10.804-3.358c0.819-1.557,1.101-3.34,0.804-5.074l-5.768-33.6L468.453,85.6
			C470.639,83.475,471.427,80.292,470.485,77.392z M429.861,100.872c-1.889,1.835-2.754,4.483-2.312,7.08l3.744,21.784l-19.56-10.28
			c-2.331-1.226-5.117-1.226-7.448,0l-19.56,10.28l3.736-21.784c0.444-2.595-0.418-5.243-2.304-7.08l-15.824-15.424l21.872-3.2
			c2.603-0.381,4.852-2.017,6.016-4.376l9.792-19.824l9.776,19.816c1.163,2.364,3.417,4.004,6.024,4.384l21.872,3.2L429.861,100.872
			z"/>
	</g>
</g>
<g>
	<g>
		<path d="M451.197,288.272l-114.192-30.456c7.959-13.201,13.089-27.912,15.064-43.2l98.872-22.816c4.308-0.994,6.994-5.292,6-9.6
			c-0.994-4.308-5.292-6.994-9.6-6l-95.496,22.04c-0.868-3.029-2.198-5.905-3.944-8.528c-9.136-13.696-27.642-17.399-41.344-8.272
			l-1.032,0.688c-4.317,2.877-7.808,6.832-10.128,11.472l-8.56,17.128c-3.415,6.818-11.711,9.577-18.53,6.162
			c-1.113-0.558-2.146-1.263-3.07-2.098l-0.096-0.064V104c1.241,0.001,2.465-0.286,3.576-0.84l16-8
			c2.973-1.485,4.718-4.654,4.384-7.96l-8-80c-0.411-4.088-3.852-7.2-7.96-7.2h-40c-3.609-0.001-6.771,2.414-7.72,5.896L220.485,24
			h-19.344c-4.418,0-8,3.582-8,8s3.582,8,8,8h14.984l-4.368,16h-18.616c-4.418,0-8,3.582-8,8s3.582,8,8,8h14.256l-5.976,21.896
			c-1.162,4.263,1.352,8.66,5.614,9.822c0.686,0.187,1.394,0.282,2.106,0.282h8v112.952l-1.296,1.04
			c-5.345,4.275-13.143,3.407-17.417-1.937c-0.545-0.681-1.016-1.418-1.406-2.199c-2.542-5.094-3.87-10.707-3.88-16.4v-19.512
			c0-17.673-14.327-32-32-32s-32,14.327-32,32V196.8c0,1.008,0.136,2,0.16,3.008L35.085,176.24
			c-4.278-1.104-8.641,1.469-9.745,5.747c-1.104,4.278,1.469,8.641,5.747,9.745c0.037,0.009,0.073,0.019,0.11,0.028l99.816,24.952
			c2.482,14.428,7.637,28.265,15.2,40.8L97.853,269.6l-21.512-3.152l-10.856-21.992c-2.338-3.961-7.444-5.277-11.405-2.939
			c-1.212,0.716-2.224,1.727-2.939,2.939l-10.888,21.992l-24.256,3.52c-4.374,0.623-7.415,4.675-6.791,9.049
			c0.249,1.749,1.07,3.366,2.335,4.599l17.6,17.112l-4.144,24.16c-0.751,4.354,2.17,8.492,6.524,9.243
			c1.737,0.3,3.524,0.017,5.084-0.803l21.672-11.408l21.704,11.408c3.91,2.057,8.748,0.555,10.805-3.356
			c0.821-1.56,1.103-3.347,0.803-5.084l-4.144-24.16l16.632-16.216l51.008-12.752c0.339-0.13,0.668-0.285,0.984-0.464
			c3.555,4.389,7.43,8.51,11.592,12.328c-15.865,13.886-27.507,31.952-33.6,52.136l-82.576,82.584
			c-3.178,3.07-3.266,8.134-0.196,11.312c3.07,3.178,8.134,3.266,11.312,0.196c0.067-0.064,0.132-0.13,0.196-0.196l66.616-66.616
			c-0.072,1.656-0.272,3.296-0.272,4.96c0.019,31.473,13.325,61.475,36.64,82.616l-11.296,16.944
			c-2.452,3.676-1.46,8.644,2.216,11.096s8.644,1.46,11.096-2.216l10.52-15.776c37.915,25.781,87.733,25.781,125.648,0l10.52,15.776
			c2.452,3.676,7.42,4.668,11.096,2.216s4.668-7.42,2.216-11.096l-11.296-16.944c23.315-21.141,36.621-51.143,36.64-82.616
			c0-1.664-0.192-3.304-0.272-4.96l66.616,66.616c3.178,3.07,8.242,2.982,11.312-0.196c2.995-3.1,2.995-8.016,0-11.116
			l-82.584-82.584c-6.036-19.969-17.496-37.871-33.104-51.712c4.273-3.809,8.248-7.942,11.888-12.36l0.08,0.04l120,32
			c0.673,0.179,1.367,0.27,2.064,0.272c4.418-0.007,7.995-3.594,7.988-8.012C457.123,292.371,454.691,289.207,451.197,288.272z
			 M73.261,292.2c-1.889,1.839-2.751,4.49-2.304,7.088l2.12,12.336l-11.08-5.824c-2.331-1.226-5.117-1.226-7.448,0l-11.072,5.816
			l2.12-12.328c0.447-2.598-0.415-5.249-2.304-7.088l-8.96-8.728l12.408-1.8c2.609-0.376,4.865-2.013,6.032-4.376l5.536-11.2
			l5.544,11.2c1.167,2.358,3.42,3.991,6.024,4.368l12.2,1.776l0.056,0.136L73.261,292.2z M239.253,16h26.688l6.736,67.312
			L263.253,88h-43.64L239.253,16z M249.141,104v160h-16V104H249.141z M297.629,277.6c-3.57,2.603-4.354,7.607-1.751,11.177
			c0.489,0.671,1.08,1.261,1.751,1.751c42.835,31.162,52.299,91.148,21.137,133.983c-18.063,24.829-46.921,39.51-77.625,39.489
			c-52.975,0.046-95.957-42.862-96.003-95.837c-0.027-30.897,14.831-59.915,39.915-77.955c3.575-2.597,4.367-7.6,1.771-11.174
			c-0.472-0.65-1.039-1.225-1.683-1.706c-25.208-19.098-40.013-48.902-40-80.528v-18.856c0-8.837,7.163-16,16-16s16,7.163,16,16
			v19.512c0.022,8.178,1.939,16.239,5.6,23.552c6.257,12.716,21.029,18.751,34.4,14.056V272c0,4.418,3.582,8,8,8h32
			c4.418,0,8-3.582,8-8v-39.2c14.033,4.766,29.427-1.597,36-14.88l8.56-17.128c1.073-2.147,2.689-3.975,4.688-5.304l1.032-0.688
			c6.343-4.234,14.917-2.525,19.151,3.818c0.003,0.005,0.006,0.009,0.009,0.014c1.621,2.309,2.441,5.085,2.336,7.904
			C335.013,234.88,320.62,260.914,297.629,277.6z"/>
	</g>
</g>
<g>
	<g>
		<path d="M102.797,90.344l-72-72c-3.178-3.07-8.242-2.982-11.312,0.196c-2.994,3.1-2.994,8.015,0,11.116l72,72
			c3.178,3.069,8.242,2.982,11.312-0.196C105.792,98.359,105.792,93.444,102.797,90.344z"/>
	</g>
</g>
<g>
	<g>
		<path d="M134.797,122.344l-8-8c-3.178-3.069-8.243-2.981-11.312,0.197c-2.994,3.1-2.994,8.015,0,11.115l8,8
			c3.178,3.069,8.243,2.981,11.312-0.197C137.791,130.359,137.791,125.444,134.797,122.344z"/>
	</g>
</g>
<g>
	<g>
		<path d="M462.797,450.344l-8-8c-3.178-3.07-8.242-2.982-11.312,0.196c-2.995,3.1-2.995,8.016,0,11.116l8,8
			c3.178,3.07,8.242,2.982,11.312-0.196C465.792,458.36,465.792,453.444,462.797,450.344z"/>
	</g>
</g>
<g>
	<g>
		<path d="M38.601,442.344c-3.1-2.995-8.016-2.995-11.116,0l-8,8c-3.178,3.07-3.266,8.134-0.196,11.312
			c3.07,3.178,8.134,3.266,11.312,0.196c0.067-0.064,0.132-0.13,0.196-0.196l8-8C41.867,450.478,41.779,445.414,38.601,442.344z"/>
	</g>
</g>
<g>
	<g>
		<path d="M462.993,18.344c-3.07-3.178-8.134-3.266-11.312-0.196c-0.067,0.064-0.132,0.13-0.196,0.196l-8,8
			c-3.124,3.125-3.123,8.19,0.002,11.314c1.5,1.499,3.534,2.342,5.654,2.342c2.122,0,4.156-0.844,5.656-2.344l8-8
			C465.975,26.586,466.063,21.522,462.993,18.344z"/>
	</g>
</g>
<g>
</g>
<g>
</g>
<g>
</g>
<g>
</g>
<g>
</g>
<g>
</g>
<g>
</g>
<g>
</g>
<g>
</g>
<g>
</g>
<g>
</g>
<g>
</g>
<g>
</g>
<g>
</g>
<g>
</g>
</symbol><symbol id="heart" viewBox="0 0 25 22"><g><g><path d="M12.494 4.806C9.258-2.823.059-1.044-.002 7.81c-.033 4.863 4.38 6.68 7.32 8.624 2.849 1.886 4.877 4.465 5.195 5.563.272-1.076 2.531-3.728 5.17-5.615 2.883-2.064 7.352-3.762 7.318-8.625-.06-8.876-9.42-10.277-12.507-2.952z"/></g></g></symbol><symbol id="hook" viewBox="0 0 480.00345 480"><path d="m136 272h16v16h-16zm0 0"/><path d="m168 272h16v16h-16zm0 0"/><path d="m200 272h16v16h-16zm0 0"/><path d="m136 304h16v16h-16zm0 0"/><path d="m168 304h16v16h-16zm0 0"/><path d="m200 304h16v16h-16zm0 0"/><path d="m232 304h16v16h-16zm0 0"/><path d="m264 304h16v16h-16zm0 0"/><path d="m136 336h16v16h-16zm0 0"/><path d="m168 336h16v16h-16zm0 0"/><path d="m200 336h16v16h-16zm0 0"/><path d="m232 336h16v16h-16zm0 0"/><path d="m264 336h16v16h-16zm0 0"/><path d="m136 368h16v16h-16zm0 0"/><path d="m168 368h16v16h-16zm0 0"/><path d="m200 368h16v16h-16zm0 0"/><path d="m232 368h16v16h-16zm0 0"/><path d="m264 368h16v16h-16zm0 0"/><path d="m136 400h16v16h-16zm0 0"/><path d="m168 400h16v16h-16zm0 0"/><path d="m200 400h16v16h-16zm0 0"/><path d="m232 400h16v16h-16zm0 0"/><path d="m264 400h16v16h-16zm0 0"/><path d="m136 432h16v16h-16zm0 0"/><path d="m168 432h16v16h-16zm0 0"/><path d="m200 432h16v16h-16zm0 0"/><path d="m232 432h16v16h-16zm0 0"/><path d="m264 432h16v16h-16zm0 0"/><path d="m472 24h-56v-16c0-4.417969-3.582031-8-8-8h-80c-4.417969 0-8 3.582031-8 8v16h-312c-4.417969 0-8 3.582031-8 8v32c0 4.421875 3.582031 8 8 8h24v152c0 4.421875 3.582031 8 8 8s8 3.582031 8 8c0 4.421875-3.582031 8-8 8s-8-3.578125-8-8h-16c.023438 5.855469 2.199219 11.5 6.121094 15.851562l-20.519532 27.351563.101563.078125c-1.070313 1.34375-1.6679688 3.003906-1.703125 4.71875v32c0 2.125.84375 4.15625 2.34375 5.65625l16 16c1.5 1.5 3.535156 2.34375 5.65625 2.34375h32c2.121094 0 4.15625-.84375 5.65625-2.34375l16-16c1.5-1.5 2.34375-3.53125 2.34375-5.65625v-32c-.035156-1.714844-.632812-3.375-1.703125-4.71875l.101563-.078125-20.519532-27.351563c5.34375-5.9375 7.359375-14.15625 5.371094-21.890624-1.984375-7.734376-7.710938-13.960938-15.25-16.589844v-145.371094h272v8c0 4.421875 3.582031 8 8 8h16v376h-32v-320h-16v32h-48v-16h-16v16h-48v-8h-16v8h-48v-24h104v-16h-104v-32h-16v360h-12.6875l-37.65625-37.652344c-3.125-3.125-8.1875-3.125-11.3125 0l-37.65625 37.652344h-4.6875v16h480v-16h-6.238281c5.628906-6.144531 7.628906-14.792969 5.269531-22.789062-2.355469-7.992188-8.726562-14.171876-16.792969-16.28125 4.066407-10.027344.925781-21.53125-7.675781-28.097657-8.597656-6.566406-20.527344-6.566406-29.125 0-8.601562 6.566407-11.742188 18.070313-7.675781 28.097657-8.066407 2.109374-14.4375 8.289062-16.792969 16.28125-2.359375 7.996093-.359375 16.644531 5.269531 22.789062h-14.238281v-376h16c4.417969 0 8-3.578125 8-8v-8h56c4.417969 0 8-3.578125 8-8v-32c0-4.417969-3.582031-8-8-8zm-428 240 12 16h-32l12-16zm20 52.691406-11.3125 11.308594h-25.375l-11.3125-11.308594v-20.691406h48zm373.601562-276.691406-21.601562 14.402344v-14.402344zm-101.601562-24h32v32h-32zm-216 25.601562 21.601562 14.398438h-43.203124zm-48 12.800782-21.601562-14.402344h43.203124zm74.398438-14.402344h43.203124l-21.601562 14.402344zm69.601562 1.601562 21.601562 14.398438h-43.203124zm26.398438-1.601562h43.203124l-21.601562 14.402344zm-226.398438 0h5.601562l24 16h-29.601562zm274.398438 16 24-16h5.601562v16zm85.601562 381.601562-14.398438-21.601562 14.398438-21.597656zm0-192-14.398438-21.601562 14.398438-21.597656zm-16 4.800782 14.398438 21.597656-14.398438 21.601562zm0-52.800782v-43.199218l14.398438 21.597656zm0 148.800782 14.398438 21.597656-14.398438 21.601562zm16-4.847656-14.398438-21.554688 14.398438-21.597656zm-14.398438-213.554688 14.398438-21.597656v43.199218zm-1.601562-26.398438v-13.601562h9.054688zm-64 90.398438v80h-48v-80zm-64 0v68.800781l-18.398438-18.183593c-1.492187-1.472657-3.503906-2.304688-5.601562-2.3125h-24v-48.304688zm-64 0v13.335938h-48v-13.335938zm-120 251.3125 20.6875 20.6875h-41.375zm72 20.6875v-242.664062h48v27c0 4.421874 3.582031 8 8 8h28.710938l29.6875 29.355468c1.492187 1.472656 3.503906 2.304688 5.601562 2.308594h56v176zm240-21.597656 14.398438 21.597656h-14.398438zm96 13.597656c-4.417969 0-8-3.578125-8-8 0-4.417969 3.582031-8 8-8s8 3.582031 8 8c0 4.421875-3.582031 8-8 8zm-16-48c4.417969 0 8 3.582031 8 8 0 4.421875-3.582031 8-8 8s-8-3.578125-8-8c0-4.417969 3.582031-8 8-8zm-16 32c4.417969 0 8 3.582031 8 8 0 4.421875-3.582031 8-8 8s-8-3.578125-8-8c0-4.417969 3.582031-8 8-8zm-24-368h-64v-8h40c4.417969 0 8-3.578125 8-8v-40h16zm42.398438-16 21.601562-14.398438v14.398438zm0 0"/></symbol><symbol id="hotel" viewBox="0 0 512 512"><title>Hotel location pin</title><path d="M408,40.575H104a44.049,44.049,0,0,0-44,44v205.1a44.049,44.049,0,0,0,44,44h97.832l22.4,57.108a5.913,5.913,0,0,0-4.979-2.06c-27.763,2.044-52.9,6.665-70.794,13.013C127.583,409.138,117,418.5,117,429.551c0,27.49,68.5,41.874,136.17,41.874,60.975,0,113.068-11.32,129.627-28.166,4.183-4.256,6.27-8.885,6.2-13.759-.032-10.884-10.482-20.124-31.06-27.466-17.739-6.329-42.655-10.936-70.16-12.973a6,6,0,1,0-.887,11.966C348.361,405.58,377,420.739,377,429.551c0,.034,0,.069,0,.1.026,1.555-.9,3.3-2.761,5.194-12,12.213-57.446,24.577-121.069,24.577-34.195,0-66.3-3.654-90.4-10.291C139.443,442.71,129,434.67,129,429.551c0-8.935,28.962-24.287,91.128-28.865a6,6,0,0,0,5.549-6.208L242.8,438.132a6.024,6.024,0,0,0,.525,1.031,11.206,11.206,0,0,0,18.907,0,6.019,6.019,0,0,0,.524-1.031l40.964-104.461H408a44.049,44.049,0,0,0,44-44V84.575A44.049,44.049,0,0,0,408,40.575Zm32,249.1a32.037,32.037,0,0,1-32,32H299.623a6,6,0,0,0-5.586,3.809L252.773,430.706,211.509,325.48a6,6,0,0,0-5.586-3.809H104a32.037,32.037,0,0,1-32-32V84.575a32.037,32.037,0,0,1,32-32H408a32.037,32.037,0,0,1,32,32Z"/><path d="M386,171.348a6,6,0,0,0-6,6V201.58H132V104.789a6,6,0,1,0-12,0V280.138a6,6,0,0,0,12,0V243.812H380v36.326a6,6,0,0,0,12,0V177.348A6,6,0,0,0,386,171.348ZM132,231.812V213.58H380v18.232Z"/><path d="M177.212,195.44a30.186,30.186,0,1,0-30.186-30.186A30.22,30.22,0,0,0,177.212,195.44Zm0-48.372a18.186,18.186,0,1,1-18.186,18.186A18.207,18.207,0,0,1,177.212,147.068Z"/><path d="M221.926,195.44H361a6,6,0,0,0,6-6,60.488,60.488,0,0,0-60.419-60.419H221.926a6,6,0,0,0-6,6V189.44A6,6,0,0,0,221.926,195.44Zm6-54.419h78.651a48.493,48.493,0,0,1,48.049,42.419h-126.7Z"/></symbol><symbol id="metro" viewBox="-71 1 511 511.9985"><path d="m366.53125 486.878906-66.800781-73.019531 16.625-51.09375h4.527343c18.550782 0 33.644532-15.085937 33.644532-33.628906v-239.679688c0-22.050781-13.253906-41.554687-33.765625-49.6875l-66.71875-26.457031c-44.777344-17.75-94.09375-17.75-138.871094 0l-66.714844 26.457031c-20.511719 8.132813-33.765625 27.636719-33.765625 49.6875v239.679688c0 18.542969 15.09375 33.628906 33.644532 33.628906h6.257812l16.628906 51.101563c.023438.074218.054688.144531.082032.21875l-66.851563 72.765624c-5.605469 6.101563-5.203125 15.589844.898437 21.191407 2.878907 2.648437 6.515626 3.957031 10.140626 3.957031 4.054687 0 8.09375-1.632812 11.050781-4.851562l76.183593-82.925782h165.832032l75.839844 82.898438c2.957031 3.234375 7.007812 4.875 11.070312 4.875 3.613281 0 7.242188-1.296875 10.117188-3.929688 6.113281-5.589844 6.535156-15.078125.945312-21.1875zm-321.84375-352.570312h279.84375v78.601562h-279.84375zm279.84375-44.851563v14.855469h-63.492188v-55.957031l48.667969 19.296875c9.003907 3.570312 14.824219 12.128906 14.824219 21.804687zm-139.921875-59.453125c15.632813 0 31.265625 2.34375 46.429687 7.007813v67.300781h-91.246093v-67.792969c14.65625-4.339843 29.734375-6.515625 44.816406-6.515625zm-125.097656 37.648438 50.285156-19.9375v56.597656h-65.109375v-14.855469c0-9.675781 5.820312-18.234375 14.824219-21.804687zm-14.824219 261.484375v-86.226563h279.84375v86.226563c0 2.003906-1.636719 3.628906-3.648438 3.628906h-272.546874c-2.011719 0-3.648438-1.625-3.648438-3.628906zm240.121094 33.628906-10.238282 31.464844h-178.191406l-10.238281-31.464844zm0 0"/><path d="m89.652344 302.84375h26.214844c8.285156 0 15-6.714844 15-15 0-8.28125-6.714844-14.996094-15-14.996094h-26.214844c-8.285156 0-15 6.714844-15 14.996094 0 8.285156 6.714844 15 15 15zm0 0"/><path d="m252.4375 302.84375h26.21875c8.28125 0 14.996094-6.714844 14.996094-15 0-8.28125-6.714844-14.996094-14.996094-14.996094h-26.21875c-8.28125 0-14.996094 6.714844-14.996094 14.996094 0 8.285156 6.714844 15 14.996094 15zm0 0"/></symbol><symbol id="mosmetro"><path d="M10 10.041L6.72 4l-3.516 9.249H2v2.001h5v-2.001h-.481l.881-2.498L10 15.27l2.6-4.519.881 2.498H13v2.001h5v-2.001h-1.205L13.279 4 10 10.041z"/></symbol><symbol id="networking" viewBox="0 0 371.08 409.57">
  <title>networking</title>
  <g id="&#x421;&#x43B;&#x43E;&#x439;_2" data-name="&#x421;&#x43B;&#x43E;&#x439; 2">
    <g id="&#x421;&#x43B;&#x43E;&#x439;_1-2" data-name="&#x421;&#x43B;&#x43E;&#x439; 1">
      <g>
        <path d="M189.54,0c7.5,1.79,14.75,4.36,19.54,10.72,3,4,5.75,8.47,7.07,13.17,1.09,3.87,2.92,5,6.29,5.7A177,177,0,0,1,322.84,90c1.84,2.23,3.4,2.5,6,1.56A31.53,31.53,0,0,1,366.93,106c7.67,14.08,4.43,31-8.07,40.56-2.47,1.89-2.85,3.45-2,6.22,10.55,34.75,10.45,69.54-.05,104.28-.73,2.43-.67,3.85,1.68,5.61a31.77,31.77,0,0,1-29.86,55.23c-2.66-.95-4-.33-5.68,1.67A176.59,176.59,0,0,1,265.75,365a165.7,165.7,0,0,1-43.63,15.05c-3.38.64-5,1.91-5.82,5.61-3.1,13.83-16.4,23.9-30.74,23.91s-27.9-10.32-30.89-24.27c-.73-3.42-2.27-4.54-5.32-5.15A175.13,175.13,0,0,1,83,351.74a171.3,171.3,0,0,1-34.87-32.14c-1.85-2.26-3.41-2.44-6.06-1.5A31.49,31.49,0,0,1,4.3,303.84c-7.8-14.1-4.76-30.91,7.66-40.64,2.5-2,3.17-3.46,2.24-6.52a175.65,175.65,0,0,1,.12-104.27c.76-2.51.45-3.87-1.81-5.57A31.8,31.8,0,0,1,42.2,91.53c2.67,1,4.2.6,6-1.59A176.07,176.07,0,0,1,105.4,44.55a168.91,168.91,0,0,1,43.24-15c3.38-.66,5.2-1.82,6.2-5.73C158,11.61,166.26,4.06,178.48.85c1-.27,2-.57,3.05-.85ZM95.95,205c.17,49.3,40.62,89.59,89.77,89.41,49.32-.18,89.58-40.6,89.4-89.76S234.5,115,185.35,115.21C136,115.39,95.78,155.81,95.95,205Zm2.59-54.38c21.27-30.92,49.87-48.08,87.23-48s65.79,17.51,86.77,48c9.67-5.29,19-10.65,28.61-15.54,4.85-2.47,7.63-4.62,6.37-11.2-1.64-8.56,1.95-16.46,7.42-23.19C294.51,72.32,240.21,40.1,216,41.9c-4.06,11.49-12.33,18.51-24.18,21.64V89.31H179.09V63.42c-12-3.06-20-10.42-24.14-21.78C120,47,80.61,68.81,56.15,100.67c6.66,8.35,9.21,17.77,7,28.4a3.29,3.29,0,0,0,1.31,2.76C75.67,138.12,87,144.28,98.54,150.59ZM315.06,309.11c-6.81-8.48-9.31-17.9-7.13-28.55.18-.89-1-2.56-2-3.12-7.28-4.17-14.66-8.15-22-12.18-3.8-2.08-7.62-4.14-11.42-6.2-21.26,30.89-49.88,48.05-87.26,48s-65.81-17.53-86.71-48c-11.17,6.11-22,12.14-32.93,17.91-2.54,1.34-2.81,2.79-2.39,5.37.51,3.11,1,6.54.24,9.48-1.61,6.06-4.08,11.88-6.47,18.55,25,30.37,57.8,50.1,97.88,58,4.27-11.91,12.41-19.1,24.5-22.22V320.23h12.54v24.69c5.52,3.3,11,5.54,15.05,9.28s6.79,9,10.35,13.88C256.49,360.22,289.23,340.6,315.06,309.11ZM27.3,256.24c11.85-1.21,21.3,2.87,29.21,11.14l36.13-19.77a100.16,100.16,0,0,1-9.44-42.8A102.55,102.55,0,0,1,92.57,162L57.4,142.67c-5,3.09-9.23,6.54-14.06,8.41s-10.5,2.28-16.39,3.44C16.48,187.8,16.57,221.81,27.3,256.24Zm287.25-114-36,19.71c12.48,28.65,12.37,57.23,0,85.76,10,5.48,19.63,10.56,29,16.06,4.45,2.6,8.32,4.59,11.94-.92.34-.51,1.08-.75,1.63-1.12,6.76-4.59,14.27-6.28,23.38-5.42,2.08-11,4.63-21.72,6.07-32.6,3.05-23.05.54-45.73-6.21-67.94-.28-.93-1.73-2.2-2.57-2.16C331,154.19,322.15,150.08,314.55,142.2ZM204.71,31.89a19.17,19.17,0,1,0-19,19.28A19.41,19.41,0,0,0,204.71,31.89ZM51.08,121.43a19.16,19.16,0,1,0-18.91,19.31A19.27,19.27,0,0,0,51.08,121.43Zm307.22.21a19.17,19.17,0,1,0-19.1,19.13A19.38,19.38,0,0,0,358.31,121.64ZM51.11,288.15a19.39,19.39,0,0,0-18.93-19.32,19.17,19.17,0,1,0,18.93,19.32Zm307.2,0a19.16,19.16,0,1,0-19.22,19A19.29,19.29,0,0,0,358.31,288.17ZM185.43,358.43a19.17,19.17,0,1,0,19.28,18.95A19.39,19.39,0,0,0,185.43,358.43Z"/>
        <path d="M165,197.31c-12-11-13.66-24.62-10.24-38.9,3.71-15.48,18.58-25.5,33.48-23.82,16.8,1.89,28.36,14.48,29.31,31.56.66,11.89-1.88,22.51-11.53,31.09a59.79,59.79,0,0,0,5.12,3.92c9.68,5.87,19.39,11.7,29.16,17.41,2.07,1.21,3,2.52,2.9,5q-.31,9-.05,18c.19,7-2.89,12.19-9.22,14.43-6.84,2.42-14,4.55-21.2,5.17-21.14,1.83-42.36,2.29-63.39-1.3A53.49,53.49,0,0,1,135.13,255c-4.88-2.39-7.23-6.88-7.2-12.46,0-6.4.13-12.8-.06-19.2-.07-2.38.91-3.54,2.8-4.65q14.63-8.62,29.14-17.45C161.57,200.16,163.13,198.74,165,197.31ZM181.77,250c11.73-.54,20-.63,28.22-1.39a108.57,108.57,0,0,0,16.81-3.16,5.69,5.69,0,0,0,3.39-4c1-13.3.95-13.31-10.41-20.21-.57-.35-1.15-.67-1.7-1C210.55,215,203,209.8,195.45,204.68a4.82,4.82,0,0,0-2.52-.71c-4.88-.06-9.76-.07-14.64,0a4.33,4.33,0,0,0-2.84.82c-7.14,7.69-16.47,12.26-25.46,17-7.28,3.83-10.54,8.35-9.41,16.67.79,5.83.51,6.41,6.14,7.93a20.85,20.85,0,0,0,3.5.79C161.88,248.25,173.53,249.26,181.77,250Zm22.87-81.37a35.66,35.66,0,0,0,0-3.6,19.23,19.23,0,0,0-18-17.75c-9.3-.59-18.12,5.78-19.66,15.18a41,41,0,0,0,.29,15.41c2.77,12.12,16.89,17.8,27.64,11.54C202.56,185,205.26,177.94,204.64,168.63Z"/>
        <path d="M191.62,38.26H179.39V25.81h12.23Z"/>
        <path d="M25.73,127.73V115.4H38v12.34Z"/>
        <path d="M345.33,127.82H333V115.45h12.32Z"/>
        <path d="M25.74,281.78H38.06v12.38H25.74Z"/>
        <path d="M332.91,294.19V281.88h12.38v12.31Z"/>
        <path d="M179.31,383.79V371.48h12.38v12.31Z"/>
      </g>
    </g>
  </g>
</symbol><symbol id="ruler" viewBox="0 0 512 512"><path d="m502 246h-26.222c-5.131-115.44-100.144-210-219.778-210-119.707 0-214.65 94.637-219.778 210h-26.222c-5.522 0-10 4.477-10 10v90c0 5.523 4.478 10 10 10h492c5.522 0 10-4.477 10-10v-90c0-5.523-4.478-10-10-10zm-10 90h-46v-20c0-5.523-4.478-10-10-10s-10 4.477-10 10v20h-40v-20c0-5.523-4.478-10-10-10s-10 4.477-10 10v20h-40v-20c0-5.523-4.478-10-10-10s-10 4.477-10 10v20h-40v-20c0-5.523-4.478-10-10-10s-10 4.477-10 10v20h-40v-20c0-5.523-4.478-10-10-10s-10 4.477-10 10v20h-40v-20c0-5.523-4.478-10-10-10s-10 4.477-10 10v20h-40v-20c0-5.523-4.478-10-10-10s-10 4.477-10 10v20h-46v-70h26c5.522 0 10-4.477 10-10 0-110.28 89.72-200 200-200s200 89.72 200 200c0 5.523 4.478 10 10 10h26z"/><path d="m256 126c-71.683 0-130 58.318-130 130 0 5.523 4.478 10 10 10h90c5.522 0 10-4.477 10-10 0-11.028 8.972-20 20-20s20 8.972 20 20c0 5.523 4.478 10 10 10h90c5.522 0 10-4.477 10-10 0-71.682-58.317-130-130-130zm38.734 120c-4.451-17.233-20.13-30-38.734-30s-34.283 12.767-38.734 30h-70.816c5.066-55.988 52.265-100 109.55-100s104.483 44.012 109.55 100z"/><circle cx="251" cy="466" r="10"/><path d="m496 436c0-4.304-2.754-8.125-6.838-9.487l-90-30c-.89-.3-2.093-.513-3.162-.513h-370c-5.522 0-10 4.477-10 10v60c0 5.523 4.478 10 10 10h180c5.522 0 10-4.477 10-10s-4.478-10-10-10h-50v-40h230v40h-90c-5.522 0-10 4.477-10 10s4.478 10 10 10h100c1.04 0 2.179-.196 3.092-.493.023-.008.047-.013.07-.02l90-30c4.084-1.362 6.838-5.183 6.838-9.487zm-460-20h40v40h-40zm100 40h-40v-40h40zm270-3.874v-32.251l48.377 16.125z"/></symbol><symbol id="seminar" viewBox="0 0 360.5 360.02">
  <title>seminar</title>
  <g id="&#x421;&#x43B;&#x43E;&#x439;_2" data-name="&#x421;&#x43B;&#x43E;&#x439; 2">
    <g id="&#x421;&#x43B;&#x43E;&#x439;_1-2" data-name="&#x421;&#x43B;&#x43E;&#x439; 1">
      <g>
        <path d="M180.3,240H9.35c-7.2,0-8.43-1.7-9-8.72-1.55-19.22,2.14-37.19,10-54.8C17.49,160.68,23,144.19,29.16,128a19,19,0,0,0,1.23-6.51Q30.5,65,30.45,8.61C30.45,1.73,32.19,0,39.09,0H321.75c6.94,0,8.69,1.73,8.7,8.55q0,56.23.06,112.47a20.93,20.93,0,0,0,1.33,7.24c9,23.67,18.16,47.28,27.15,71a23.15,23.15,0,0,1,1.42,7.62c.17,8.37.06,16.74,0,25.12,0,6.12-1.94,8.05-8.08,8.05Zm165.26-42.09c-.55-1.54-.94-2.7-1.38-3.85-7.48-19.45-15-38.86-22.35-58.37-1.12-3-2.59-3.76-5.62-3.76q-79.87.15-159.73.09h-5.83V120H318.18V12.31H42.69V120.13H54.25V132c-3.66,0-7.14.16-10.6-.06-2.42-.15-3.43.77-4.27,3-7.57,19.95-15.28,39.84-22.93,59.75-.38,1-.64,2-1,3.23Zm2.71,12.36H12.63v17.54H348.27Z"/>
        <path d="M241.51,305.24c-9.48-12.32-9.24-25.36.31-34.51a23.9,23.9,0,0,1,32.08-1.06c10.48,8.8,11.13,21.23,1.7,35.62,6.93,5.23,11.84,12.06,12.47,20.8.69,9.44.43,19,.24,28.45-.07,3.43-2.58,5.4-6,5.41q-23.79.1-47.58,0c-3.47,0-6-1.93-6.09-5.36-.19-9.61-.44-19.26.28-28.82C229.53,317.18,234.39,310.45,241.51,305.24Zm34.83,42.68c0-6.9.4-13.52-.1-20.07-.65-8.36-7.8-15-16.06-15.78s-17.09,4.39-18.62,12.47c-1.44,7.57-1.05,15.49-1.47,23.37ZM258.4,276a12,12,0,1,0,12,11.84A12.07,12.07,0,0,0,258.4,276Z"/>
        <path d="M313.5,305.23c-9.54-12.53-9.21-25.6.57-34.72a23.88,23.88,0,0,1,32.09-.63c10.31,8.87,10.87,21.48,1.46,35.32,1.08,1,2.23,1.89,3.29,2.91a29.36,29.36,0,0,1,9.52,21.28c.14,7.87.08,15.74,0,23.6,0,4.69-2.24,7-6.86,7q-23,.08-46.09,0c-4.84,0-7-2.25-7-7.2,0-5.74.24-11.51-.09-17.23C299.67,323.28,303.05,312.87,313.5,305.23Zm34.87,42.59c0-6.79.37-13.29-.09-19.73-.63-8.93-8.45-15.87-17.34-16.07-9.07-.21-17.35,6.45-18.21,15.52-.63,6.65-.12,13.41-.12,20.29Zm-5.95-59.9A12,12,0,1,0,330.6,300,12.05,12.05,0,0,0,342.42,287.92Z"/>
        <path d="M163.18,305.1c-9.26-14.15-8.62-26.68,1.79-35.43a24,24,0,0,1,32.1,1c9.56,9.16,9.83,22.17.69,34.09,0,.23,0,.57.16.68,9.32,7.26,13.14,16.87,12.59,28.55-.29,6.11,0,12.24,0,18.36,0,5.44-2.08,7.6-7.38,7.61q-22.67,0-45.34,0c-5.12,0-7.26-2.16-7.29-7.32,0-7.37,0-14.74,0-22.11A29.57,29.57,0,0,1,162,306.47a13.38,13.38,0,0,0,1.09-1C163.14,305.37,163.14,305.22,163.18,305.1Zm35.19,42.72c0-6.74.36-13.24-.09-19.69-.62-8.94-8.4-15.87-17.33-16.09-9.14-.23-17.33,6.33-18.2,15.47-.63,6.65-.12,13.41-.12,20.31Zm-5.93-60A12,12,0,1,0,180.7,300,12.08,12.08,0,0,0,192.44,287.84Z"/>
        <path d="M13.51,305.25C4,292.81,4.24,280,13.79,270.77a23.85,23.85,0,0,1,32.07-1.13c10.52,8.78,11.2,21.56,1.73,35.63,7,5.21,11.83,12.07,12.48,20.8.7,9.44.44,19,.25,28.45-.07,3.43-2.55,5.42-6,5.44q-23.79.11-47.59,0c-3.47,0-6-1.9-6.12-5.32-.2-9.61-.44-19.26.28-28.83C1.52,317.23,6.35,310.48,13.51,305.25Zm34.93,42.56c0-6.26.12-12.24,0-18.21A18.07,18.07,0,0,0,31.68,312c-9.38-.59-18,6.08-19,15.47-.65,6.65-.13,13.41-.13,20.3ZM30.5,300a12,12,0,1,0-12-11.84A12.09,12.09,0,0,0,30.5,300Z"/>
        <path d="M85.48,305.24c-9.53-12.69-9.24-25.55.51-34.7a23.89,23.89,0,0,1,32.37-.47c10.14,8.94,10.64,21.78,1.25,35.09.81.71,1.64,1.41,2.45,2.15,6.6,6,10.24,13.44,10.36,22.43.1,7.62.05,15.24,0,22.86,0,5.33-2.13,7.38-7.58,7.39q-22.48,0-45,0c-5.37,0-7.43-2.11-7.45-7.52,0-5.87.26-11.75,0-17.61C71.77,322.83,75.3,312.73,85.48,305.24Zm34.81,42.57c0-6.89.48-13.64-.12-20.29-.77-8.51-8.32-15.07-16.7-15.5-8.75-.45-17,5.16-18.27,13.88-1,7.15-.21,14.56-.21,21.91ZM102.41,276a12,12,0,1,0,12,11.85A12.07,12.07,0,0,0,102.41,276Z"/>
        <path d="M119.5,95.28c10.42,7.68,13.88,18.15,12.87,30.73,2.13,0,3.85-.05,5.56,0,4.18.16,6.48,2.36,6.5,6.59q.09,23.43,0,46.86c0,4.19-2.35,6.5-6.57,6.51Q102.43,186,67,186c-4.2,0-6.5-2.34-6.52-6.55q-.09-23.43,0-46.86c0-4.2,2.33-6.39,6.54-6.54,1.62-.06,3.24,0,5.45,0-.88-12.36,2.31-23.07,13.1-30.73C80,88.78,77.14,81.62,79,73.14a24,24,0,0,1,40.21-12.31C128.6,70,128.78,82.17,119.5,95.28Zm12.78,43H72.75v35.55h59.53Zm-12-12.38c1-9.18-.84-16.87-9.08-21.54-6.56-3.72-13.24-3.22-19.33,1.22-6.93,5.06-8.16,12.25-7.1,20.32Zm-5.8-48A12,12,0,1,0,102.64,90,12.08,12.08,0,0,0,114.44,77.9Z"/>
        <path d="M270.45,71.58c0-5.36,0-10.6,0-15.83,0-5.78,2.35-8,8-7.68,15,.83,27.44,13.58,28,28.64a30.11,30.11,0,0,1-26.53,31.11c-14.74,2-29.47-8.47-32.66-23.16a36,36,0,0,1-.65-3.69c-.71-6.46,1.57-9,8.13-9l14.61-.06A5.7,5.7,0,0,0,270.45,71.58ZM259.87,84A17.68,17.68,0,0,0,279,95.84a18.17,18.17,0,0,0,15.46-18c0-7.6-5.54-15.1-12-16.13,0,5,0,10,0,15S280.28,84,275.14,84C270.16,84.05,265.18,84,259.87,84Z"/>
        <path d="M246.1,66c-3.75,0-7.5.08-11.24,0-4.13-.11-6.37-2.52-6.4-6.66C228.33,44,242.35,29.94,257.73,30c4.16,0,6.64,2.24,6.69,6.36q.15,11.62,0,23.23c-.05,4-2.35,6.25-6.32,6.37S250.1,66,246.1,66Zm-4.38-12.27h10.47V43.19C247,45.37,243.7,48.6,241.72,53.73Z"/>
        <path d="M141.77,48.63c8.46-4.19,16.57-8.26,24.74-12.21a7.85,7.85,0,0,1,3.29-.24,6,6,0,0,1,1.42.44c5.23,1.47,10.6,4.44,15.66,4s9.64-4.37,14.44-6.75c2-1,4-2,6.41-3.14l5.44,10.7c-8.6,4.21-16.9,8.41-25.36,12.27-1.32.6-3.59.09-5-.67-9.5-5.08-18.38-4.25-27.08,2-2.49,1.78-5.51,2.82-8.56,4.33Z"/>
        <path d="M210.2,95.85H198.63V54.31H210.2Z"/>
        <path d="M174.19,95.82H162.63V60.28h11.56Z"/>
        <path d="M180.72,66.17h11.55V95.71H180.72Z"/>
        <path d="M156.29,66.2V95.72H144.68V66.2Z"/>
      </g>
    </g>
  </g>
</symbol><symbol id="Shape_5" viewBox="0 0 44 44"><g><g><path d="M37.56 28.445l6.444-6.446-6.444-6.445V6.44h-9.115L22-.005 15.555 6.44H6.44v9.114L-.005 22l6.445 6.446v9.114h9.114L22 44.005l6.445-6.446h9.115z"/></g></g></symbol><symbol id="shield" viewBox="-28 1 511 511.999"><path d="m403.164062 85.199219c-15.847656-2.003907-31.335937-5.519531-46.027343-10.445313-3.929688-1.316406-8.179688.800782-9.496094 4.726563-1.316406 3.929687.800781 8.179687 4.726563 9.496093 15.628906 5.242188 32.085937 8.976563 48.917968 11.105469 25.242188 3.195313 43.257813 26.492188 40.15625 51.929688-4.066406 33.359375-11.511718 83.152343-23.886718 130.917969-13.480469 52.027343-29.300782 88.226562-47.023438 107.59375-36.394531 39.769531-82.023438 75.019531-113.890625 97.585937-16.746094 11.859375-39.246094 11.859375-55.988281 0-31.867188-22.566406-77.496094-57.816406-113.890625-97.585937-17.722657-19.367188-33.546875-55.566407-47.023438-107.59375-12.375-47.765626-19.820312-97.558594-23.890625-130.917969-3.097656-25.4375 14.914063-48.734375 40.160156-51.929688 72.769532-9.203125 121-45.765625 148.648438-74.816406 6.300781-6.617187 14.820312-10.265625 23.988281-10.265625s17.6875 3.648438 23.992188 10.265625c19.917969 20.929687 42.941406 37.996094 68.429687 50.726563 3.703125 1.851562 8.210938.347656 10.0625-3.359376 1.847656-3.707031.34375-8.210937-3.359375-10.058593-23.929687-11.953125-45.550781-27.984375-64.269531-47.648438-9.160156-9.625-21.539062-14.925781-34.855469-14.925781-13.316406 0-25.695312 5.300781-34.855469 14.925781-25.96875 27.285157-71.277343 61.625-139.664062 70.273438-33.414062 4.226562-57.265625 35.015625-53.167969 68.628906 6.984375 57.289063 28.25 196.023437 74.738281 246.824219 37.289063 40.746094 83.820313 76.707031 116.285157 99.699218 10.964843 7.765626 23.8125 11.648438 36.664062 11.648438 12.847657-.003906 25.699219-3.882812 36.664063-11.648438 32.464844-22.992187 78.996094-58.953124 116.285156-99.699218 46.492188-50.800782 67.753906-189.535156 74.738281-246.824219 4.097657-33.613281-19.753906-64.402344-53.167969-68.628906zm0 0"/><path d="m211.722656 70.453125c-37.941406 32.832031-82.234375 54.320313-131.644531 63.867187-15.054687 2.910157-25.21875 17.144532-23.140625 32.410157 3.496094 25.667969 10.644531 73.671875 19.21875 106.765625 15.628906 60.335937 30.742188 83.308594 38.359375 91.628906 25.039063 27.359375 71.5 63.917969 96.964844 83.273438 5.054687 3.839843 11.109375 5.757812 17.164062 5.757812 6.054688 0 12.109375-1.917969 17.164063-5.757812 25.464844-19.355469 71.925781-55.914063 96.964844-83.273438 7.617187-8.320312 22.730468-31.292969 38.359374-91.628906 8.578126-33.101563 15.722657-81.101563 19.222657-106.765625 2.078125-15.265625-8.089844-29.5-23.144531-32.410157-49.410157-9.546874-93.703126-31.035156-131.644532-63.867187-9.648437-8.347656-24.195312-8.347656-33.84375 0zm173.769532 94.25c-3.453126 25.339844-10.496094 72.675781-18.878907 105.03125-15.800781 60.992187-30.710937 80.679687-34.902343 85.265625-25.152344 27.480469-74.800782 66.117188-94.980469 81.453125-4.761719 3.621094-11.410157 3.621094-16.171875 0-20.179688-15.335937-69.828125-53.976563-94.976563-81.453125-4.195312-4.585938-19.105469-24.273438-34.90625-85.265625-8.378906-32.347656-15.421875-79.6875-18.875-105.03125-1.007812-7.378906 3.878907-14.253906 11.121094-15.65625 52.027344-10.050781 98.664063-32.675781 138.617187-67.25 2.023438-1.753906 4.566407-2.632813 7.105469-2.632813 2.539063 0 5.082031.878907 7.105469 2.632813 39.953125 34.574219 86.589844 57.199219 138.617188 67.25 7.242187 1.402344 12.128906 8.277344 11.125 15.65625zm0 0"/><path d="m187.050781 234.066406c-5.640625-4.59375-24.679687-14.078125-38.3125 3.933594-13.628906 18.007812-1.707031 33.71875 3.933594 38.3125l21.75 17.695312c3.210937 2.613282 7.9375 2.132813 10.550781-1.082031 2.613282-3.214843 2.128906-7.9375-1.082031-10.554687l-21.75-17.695313c-2.53125-2.0625-8.0625-8.777343-1.765625-17.210937 6.296875-8.429688 14.675781-3.828125 17.207031-1.765625l45.035157 36.644531c2.972656 2.417969 7.289062 2.207031 10.011718-.492188l65.902344-65.285156c4.792969-4.75 12.550781-4.710937 17.300781.082032 4.746094 4.789062 4.707031 12.550781-.082031 17.296874l-78.496094 77.765626c-6.214844 5.992187-13.058594 3.496093-16.328125.796874l-12.460937-10.136718c-3.214844-2.613282-7.9375-2.128906-10.554688 1.082031-2.613281 3.210937-2.128906 7.9375 1.085938 10.550781l12.460937 10.140625c4.839844 3.9375 10.941407 6.109375 17.183594 6.109375 7.230469 0 14.039063-2.800781 19.171875-7.886718l78.492188-77.761719c10.667968-10.570313 10.75-27.847657.179687-38.515625-10.566406-10.664063-27.84375-10.746094-38.511719-.179688l-61.117187 60.546875zm0 0"/></symbol><symbol id="star" viewBox="0 0 26 24"><g><g><path d="M13 0l4.284 7.542 8.714 1.625-6.066 6.286L21.033 24 13 20.342l-8.034 3.657 1.101-8.546L.002 9.167l8.713-1.625L13 0"/></g></g></symbol><symbol id="team" viewBox="0 0 512 512">
<g>
	<g>
		<path d="M451.72,237.26c-17.422-8.71-50.087-8.811-51.469-8.811c-4.142,0-7.5,3.358-7.5,7.5c0,4.142,3.358,7.5,7.5,7.5
			c8.429,0.001,32.902,1.299,44.761,7.228c1.077,0.539,2.221,0.793,3.348,0.793c2.751,0,5.4-1.52,6.714-4.147
			C456.927,243.618,455.425,239.113,451.72,237.26z"/>
	</g>
</g>
<g>
	<g>
		<path d="M489.112,344.041l-30.975-8.85c-1.337-0.382-2.271-1.62-2.271-3.011v-10.339c2.52-1.746,4.924-3.7,7.171-5.881
			c10.89-10.568,16.887-24.743,16.887-39.915v-14.267l2.995-5.989c3.287-6.575,5.024-13.936,5.024-21.286v-38.65
			c0-4.142-3.358-7.5-7.5-7.5H408.27c-26.244,0-47.596,21.352-47.596,47.596v0.447c0,6.112,1.445,12.233,4.178,17.699l3.841,7.682
			v12.25c0,19.414,9.567,36.833,24.058,47.315l0.002,10.836c0,1.671,0,2.363-6.193,4.133l-15.114,4.318l-43.721-15.898
			c0.157-2.063-0.539-4.161-2.044-5.742l-13.971-14.678v-24.64c1.477-1.217,2.933-2.467,4.344-3.789
			c17.625-16.52,27.733-39.844,27.733-63.991v-19.678c5.322-11.581,8.019-23.836,8.019-36.457v-80.19c0-4.142-3.358-7.5-7.5-7.5
			H232.037c-39.51,0-71.653,32.144-71.653,71.653v16.039c0,12.621,2.697,24.876,8.019,36.457v16.931
			c0,28.036,12.466,53.294,32.077,69.946v25.22l-13.971,14.678c-1.505,1.581-2.201,3.679-2.044,5.742l-46.145,16.779
			c-3.344,1.216-6.451,2.863-9.272,4.858l-7.246-3.623c21.57-9.389,28.403-22.594,28.731-23.25c1.056-2.111,1.056-4.597,0-6.708
			c-5.407-10.814-6.062-30.635-6.588-46.561c-0.175-5.302-0.341-10.311-0.658-14.771c-2.557-35.974-29.905-63.103-63.615-63.103
			s-61.059,27.128-63.615,63.103c-0.317,4.461-0.483,9.47-0.658,14.773c-0.526,15.925-1.182,35.744-6.588,46.558
			c-1.056,2.111-1.056,4.597,0,6.708c0.328,0.656,7.147,13.834,28.76,23.234l-20.127,10.063C6.684,358.176,0,368.991,0,381.02
			v55.409c0,4.142,3.358,7.5,7.5,7.5s7.5-3.358,7.5-7.5V381.02c0-6.312,3.507-11.987,9.152-14.81l25.063-12.531l8.718,8.285
			c6.096,5.793,13.916,8.688,21.739,8.688c7.821,0,15.645-2.897,21.739-8.688l8.717-8.284l8.172,4.086
			c-3.848,6.157-6.032,13.377-6.032,20.94v57.725c0,4.142,3.358,7.5,7.5,7.5c4.142,0,7.5-3.358,7.5-7.5v-57.725
			c0-10.296,6.501-19.578,16.178-23.097l48.652-17.691l20.253,30.381c2.589,3.884,6.738,6.375,11.383,6.835
			c0.518,0.051,1.033,0.076,1.547,0.076c4.098,0,8.023-1.613,10.957-4.546l12.356-12.356v78.124c0,4.142,3.358,7.5,7.5,7.5
			c4.142,0,7.5-3.358,7.5-7.5v-78.124l12.356,12.356c2.933,2.934,6.858,4.547,10.957,4.547c0.513,0,1.029-0.025,1.546-0.076
			c4.646-0.46,8.795-2.951,11.384-6.835l20.254-30.38l48.651,17.691c9.676,3.519,16.178,12.801,16.178,23.097v57.725
			c0,4.142,3.358,7.5,7.5,7.5c4.142,0,7.5-3.358,7.5-7.5v-57.725c0-10.428-4.143-20.208-11.093-27.441l1.853-0.529
			c1.869-0.534,4.419-1.265,6.979-2.52l19.149,19.149v69.066c0,4.142,3.358,7.5,7.5,7.5c4.142,0,7.5-3.358,7.5-7.5v-69.066
			l19.016-19.016c1.011,0.514,2.073,0.948,3.191,1.267l30.976,8.85c7.07,2.02,12.009,8.567,12.009,15.921v62.044
			c0,4.142,3.358,7.5,7.5,7.5c4.142,0,7.5-3.358,7.5-7.5v-62.044C512,360.371,502.588,347.892,489.112,344.041z M48.115,330.794
			c-14.029-5.048-21.066-11.778-24.07-15.453c2.048-5.354,3.376-11.486,4.275-17.959c4.136,9.917,11.063,18.383,19.795,24.423
			V330.794z M91.08,351.092c-6.397,6.078-16.418,6.077-22.813-0.001l-6.975-6.628c1.177-2.205,1.824-4.705,1.824-7.324v-7.994
			c5.232,1.635,10.794,2.517,16.558,2.517c5.757,0,11.316-0.886,16.557-2.512l-0.001,7.988c0,2.62,0.646,5.121,1.824,7.327
			L91.08,351.092z M79.676,316.662c-22.396,0-40.615-18.22-40.615-40.615c0-4.142-3.358-7.5-7.5-7.5c-0.42,0-0.83,0.043-1.231,0.11
			c0.022-0.645,0.043-1.291,0.065-1.93c0.167-5.157,0.328-10.028,0.625-14.206c0.958-13.476,6.343-25.894,15.163-34.968
			c8.899-9.156,20.793-14.198,33.491-14.198s24.591,5.042,33.491,14.198c8.82,9.074,14.205,21.492,15.163,34.968
			c0.296,4.177,0.458,9.047,0.628,14.203c0.015,0.443,0.03,0.892,0.045,1.338c-8.16-12.572-20.762-21.837-37.045-27.069
			c-15.043-4.833-27.981-4.534-28.527-4.52c-1.964,0.055-3.828,0.877-5.191,2.291l-13.532,14.034
			c-2.875,2.982-2.789,7.73,0.193,10.605s7.73,2.788,10.605-0.193l11.26-11.677c9.697,0.474,40.894,4.102,53.027,30.819
			C116.738,302.04,99.816,316.662,79.676,316.662z M111.229,330.819l0.001-8.945c8.725-6.007,15.662-14.457,19.801-24.449
			c0.899,6.458,2.226,12.576,4.27,17.918C132.314,318.983,125.244,325.773,111.229,330.819z M183.403,209.145v-18.608
			c0-1.129-0.255-2.244-0.746-3.261c-4.826-9.994-7.273-20.598-7.273-31.518V139.72c0-31.239,25.415-56.653,56.653-56.653h104.769
			v72.692c0,10.92-2.447,21.524-7.273,31.518c-0.491,1.017-0.746,2.132-0.746,3.261v21.355c0,20.311-8.165,39.15-22.991,53.047
			c-1.851,1.734-3.772,3.36-5.758,4.875c-0.044,0.03-0.086,0.063-0.129,0.094c-13.889,10.545-30.901,15.67-48.667,14.519
			C213.201,281.965,183.403,248.897,183.403,209.145z M225.632,360.056c-0.052,0.052-0.173,0.175-0.418,0.149
			c-0.244-0.024-0.34-0.167-0.381-0.229l-23.325-34.988l7.506-7.887l35.385,24.187L225.632,360.056z M256.095,331.113
			l-40.615-27.762v-14c10.509,5.681,22.276,9.234,34.791,10.044c1.977,0.128,3.942,0.191,5.901,0.191
			c14.341,0,28.143-3.428,40.538-9.935v13.7L256.095,331.113z M287.357,359.978c-0.041,0.062-0.137,0.205-0.381,0.229
			c-0.245,0.031-0.365-0.098-0.418-0.149l-18.767-18.767l35.385-24.188l7.507,7.887L287.357,359.978z M424.308,353.65l-17.02-17.019
			c0.297-1.349,0.465-2.826,0.464-4.455l-0.001-3.165c4.723,1.55,9.701,2.47,14.852,2.624c0.578,0.018,1.151,0.026,1.727,0.026
			c5.692,0,11.248-0.86,16.536-2.501v3.02c0,1.496,0.188,2.962,0.542,4.371L424.308,353.65z M452.591,305.196
			c-7.949,7.714-18.45,11.788-29.537,11.446c-21.704-0.651-39.361-19.768-39.361-42.613v-14.021c0-1.165-0.271-2.313-0.792-3.354
			l-4.633-9.266c-1.697-3.395-2.594-7.195-2.594-10.991v-0.447c0-17.974,14.623-32.596,32.596-32.596h64.673v31.15
			c0,5.034-1.19,10.075-3.441,14.578l-3.786,7.572c-0.521,1.042-0.792,2.189-0.792,3.354v16.038
			C464.924,287.126,460.544,297.478,452.591,305.196z"/>
	</g>
</g>
<g>
	<g>
		<path d="M472.423,380.814c-4.142,0-7.5,3.358-7.5,7.5v48.115c0,4.142,3.358,7.5,7.5,7.5c4.142,0,7.5-3.358,7.5-7.5v-48.115
			C479.923,384.173,476.565,380.814,472.423,380.814z"/>
	</g>
</g>
<g>
	<g>
		<path d="M39.577,390.728c-4.142,0-7.5,3.358-7.5,7.5v38.201c0,4.142,3.358,7.5,7.5,7.5c4.142,0,7.5-3.358,7.5-7.5v-38.201
			C47.077,394.087,43.719,390.728,39.577,390.728z"/>
	</g>
</g>
<g>
	<g>
		<path d="M317.532,158.475c-28.366-28.366-87.715-22.943-111.917-19.295c-7.623,1.149-13.155,7.6-13.155,15.339v17.278
			c0,4.142,3.358,7.5,7.5,7.5c4.142,0,7.5-3.358,7.5-7.5v-17.279c0-0.255,0.168-0.473,0.392-0.507
			c9.667-1.457,28.85-3.705,48.725-2.38c23.388,1.557,40.328,7.428,50.349,17.45c2.929,2.929,7.678,2.929,10.606,0
			C320.461,166.152,320.461,161.403,317.532,158.475z"/>
	</g>
</g>
<g>
	<g>
		<path d="M167.884,396.853c-4.142,0-7.5,3.358-7.5,7.5v32.077c0,4.142,3.358,7.5,7.5,7.5c4.142,0,7.5-3.358,7.5-7.5v-32.077
			C175.384,400.212,172.026,396.853,167.884,396.853z"/>
	</g>
</g>
<g>
	<g>
		<path d="M344.306,396.853c-4.142,0-7.5,3.358-7.5,7.5v32.077c0,4.142,3.358,7.5,7.5,7.5c4.142,0,7.5-3.358,7.5-7.5v-32.077
			C351.806,400.212,348.448,396.853,344.306,396.853z"/>
	</g>
</g>
<g>
</g>
<g>
</g>
<g>
</g>
<g>
</g>
<g>
</g>
<g>
</g>
<g>
</g>
<g>
</g>
<g>
</g>
<g>
</g>
<g>
</g>
<g>
</g>
<g>
</g>
<g>
</g>
<g>
</g>
</symbol></svg>