<svg xmlns="http://www.w3.org/2000/svg" width="40" height="28" viewBox="0 0 40 28"><g><g><path fill="none" stroke="#ec343c" stroke-linecap="round" stroke-linejoin="bevel" stroke-miterlimit="50" stroke-width="1.5" d="M1.153 26.907V23.52l8.587-8.958c1.24-1.383 2.12-2.551 2.643-3.503.523-.952.784-1.836.784-2.652 0-1.088-.3-1.978-.902-2.67-.602-.692-1.456-1.038-2.562-1.038-1.228 0-2.16.405-2.798 1.215-.638.81-.957 1.89-.957 3.238H.77l-.036-.107c-.061-2.33.726-4.301 2.36-5.916C4.73 1.514 6.932.707 9.704.707c2.734 0 4.885.692 6.453 2.075 1.568 1.384 2.352 3.229 2.352 5.535 0 1.56-.441 3.004-1.322 4.328-.881 1.325-2.343 3.051-4.385 5.18l-4.721 5.02.036.089h6.891l.22-2.555h4.046v6.528zM35.533 6.97L35.06 5.23h-7.146l-.748 5.96c.498-.354 1.094-.647 1.787-.877a7.584 7.584 0 0 1 2.297-.364c2.552-.036 4.527.716 5.925 2.253 1.398 1.537 2.097 3.678 2.097 6.421 0 2.484-.77 4.547-2.307 6.191-1.537 1.644-3.752 2.466-6.645 2.466-2.43 0-4.515-.648-6.253-1.943-1.738-1.295-2.577-3.077-2.516-5.348l.037-.088 5.104-.249c0 1.147.334 2.043 1.003 2.688.668.644 1.543.966 2.625.966 1.24 0 2.157-.431 2.753-1.295.595-.863.893-1.98.893-3.352 0-1.49-.316-2.685-.948-3.584-.632-.898-1.574-1.348-2.825-1.348-1.01 0-1.784.184-2.325.55a3.01 3.01 0 0 0-1.157 1.49l-4.704-.301L23.537 1.08h15.278v5.889z"/></g></g></svg>