<svg xmlns="http://www.w3.org/2000/svg" viewBox="0 0 100.22 55.26">
  <title>384063</title>
  <g id="Слой_2" data-name="Слой 2">
    <g id="Слой_1-2" data-name="Слой 1">
      <g>
        <path d="M100.22,26.45a21.5,21.5,0,0,1-2,3.61,6.25,6.25,0,0,1-4.92,2c-3,0-5.94,0-8.91,0-1.42,0-2.23-1-1.76-2.11a1.67,1.67,0,0,1,1.75-1c3,0,6,0,9,0a3.61,3.61,0,0,0,3.74-4,3.58,3.58,0,0,0-3.68-3.1c-1.5,0-3,0-4.5,0-4.34,0-8.68-.12-13,0-3.68.13-6-2.27-5.71-5.58a7.4,7.4,0,0,0-.06-.91H53.21c-1.19,0-1.89-.62-1.88-1.54s.72-1.49,1.92-1.49q12.63,0,25.25,0A7.33,7.33,0,0,1,85.7,18c.16.66.44.81,1.05.8,1.79,0,3.6.09,5.38,0,4.19-.28,7.14,1.71,8.09,5.74ZM82.59,18.77a3.65,3.65,0,0,0-3-3.21c-2-.19-4.13,0-6.3,0,0,.28,0,.6,0,.92,0,1.73.61,2.33,2.36,2.34h7Z"/>
        <path d="M5.51,8.49c.65,3.16,2.38,5.87,2.37,9.06h12.3c.94,0,2-.17,2.46.94s-.35,1.75-1,2.46l-6.6,7.43a32.14,32.14,0,0,0,4.19.6c7.5.06,15,0,22.51,0,1.15,0,1-1,1.52-1.65H30A5.08,5.08,0,0,1,29,27.27a1.38,1.38,0,0,1-1.18-1.55,1.41,1.41,0,0,1,1.28-1.39,5.28,5.28,0,0,1,1,0H75a5.24,5.24,0,0,1,1,0,1.42,1.42,0,0,1,1.26,1.5A1.36,1.36,0,0,1,76,27.27a6.37,6.37,0,0,1-1.07.09h-9.4c-1.57,0-1.57,0-2.25,1.63h6.95c1,0,2,0,2.94,0,1.13,0,1.8.57,1.82,1.48s-.63,1.59-1.82,1.6c-3.62,0-7.24,0-10.86,0a1.59,1.59,0,0,0-1.7.94c-.39.78-.91,1.5-1.44,2.35.34,0,.57.08.81.08,1.76,0,3.52,0,5.29,0a1.92,1.92,0,0,1,2.08,2.08c0,1.63,0,3.26,0,4.89s-.73,2.37-2.41,2.37c-3.52,0-7,0-10.57,0a1.77,1.77,0,0,0-1.77,1C51,48.44,49.31,51,47.7,53.68a3,3,0,0,1-2.8,1.57c-4,0-8,0-12,0-2.35,0-3.33-1.65-2.23-3.75q4.79-9.13,9.6-18.26c.16-.31.32-.63.57-1.15H20.2a16.66,16.66,0,0,1-6.6-1.16,1.24,1.24,0,0,0-.65-.16c-3.75.77-7.53.18-11.29.31-1.49,0-2.12-1.26-1.3-2.52,1.45-2.21,3-4.38,4.39-6.59a2.69,2.69,0,0,0,.31-1.42c0-.74-.24-1.49-.21-2.23a15.46,15.46,0,0,0-1.23-5.49Q2,8,.43,3.17C-.25,1.08.51,0,2.7,0c2.84,0,5.68,0,8.51,0a2.43,2.43,0,0,1,2.46,1.54c1.62,3.34,3.28,6.66,4.89,10a1.19,1.19,0,0,0,1.26.79c7,0,14,0,20.95,0h.69c1.62,0,2.38.5,2.36,1.55s-.75,1.49-2.31,1.49H22.8c-1.5,0-3,0-4.5,0a1.84,1.84,0,0,1-1.85-1.16c-.81-1.71-1.64-3.4-2.51-5.08a1.21,1.21,0,0,0-.82-.61C10.6,8.47,8.09,8.49,5.51,8.49ZM37.42,45.25c3.78,0,7.4,0,11,0a1.42,1.42,0,0,0,1.4-.78q5-8.1,10.11-16.17c.17-.26.31-.54.54-.95H59.37c-3.88,0-7.76,0-11.64,0a1.37,1.37,0,0,0-1.41.88c-2.8,5.38-5.63,10.73-8.45,16.09C37.73,44.58,37.61,44.84,37.42,45.25ZM4.41,28c2.25,0,4.27,0,6.28,0a1.52,1.52,0,0,0,1-.46c1.9-2.1,3.77-4.22,5.65-6.35a4.51,4.51,0,0,0,.36-.59c-2.67,0-5.21,0-7.74,0a1,1,0,0,0-.73.32C7.62,23.23,6.07,25.55,4.41,28ZM33.75,52.15c3.73,0,7.25,0,10.77,0a.9.9,0,0,0,.66-.29c.73-1.1,1.42-2.23,2.22-3.51-3.88,0-7.56,0-11.23,0a.82.82,0,0,0-.59.37C35,49.8,34.41,50.89,33.75,52.15ZM3.67,3.1c.23.72.4,1.31.63,1.88.08.19.34.45.52.45,2.39,0,4.78,0,7.32,0-.37-.76-.65-1.38-1-2a.73.73,0,0,0-.5-.36C8.37,3.1,6.07,3.1,3.67,3.1ZM55.23,41.66h4.42V38.53c-.67,0-1.29,0-1.9,0a1.2,1.2,0,0,0-.8.39C56.36,39.78,55.85,40.68,55.23,41.66Zm9,0V38.6H62.87v3.09Z"/>
        <path d="M21,38.59c3.39,0,6.78,0,10.17,0a2.6,2.6,0,0,1,1.68.71,1.39,1.39,0,0,1-.72,2.2,3.46,3.46,0,0,1-1.06.14H10.77c-.16,0-.33,0-.49,0a1.62,1.62,0,0,1-1.65-1.59,1.57,1.57,0,0,1,1.74-1.48C13.93,38.58,17.48,38.59,21,38.59Z"/>
        <path d="M22.82,51.35c-1.14,0-2.28,0-3.42,0a1.53,1.53,0,0,1-1.7-1.5,1.52,1.52,0,0,1,1.68-1.52q3.42,0,6.84,0c1.1,0,1.78.65,1.75,1.55s-.71,1.46-1.83,1.48-2.22,0-3.32,0Z"/>
        <path d="M6.92,51.34c-.68,0-1.37,0-2,0a1.43,1.43,0,0,1-1.45-1.51,1.38,1.38,0,0,1,1.4-1.46c1.43,0,2.86,0,4.29,0a1.44,1.44,0,0,1,1.37,1.5,1.49,1.49,0,0,1-1.42,1.46C8.35,51.38,7.64,51.34,6.92,51.34Z"/>
        <path d="M52.86,17.59a1.5,1.5,0,1,1-1.53,1.47A1.53,1.53,0,0,1,52.86,17.59Z"/>
        <path d="M45.33,19a1.52,1.52,0,1,1-1.54-1.46A1.53,1.53,0,0,1,45.33,19Z"/>
        <path d="M34.8,20.58a1.5,1.5,0,1,1,0-3,1.47,1.47,0,0,1,1.48,1.49A1.49,1.49,0,0,1,34.8,20.58Z"/>
        <path d="M61.9,17.58A1.5,1.5,0,1,1,60.39,19,1.49,1.49,0,0,1,61.9,17.58Z"/>
      </g>
    </g>
  </g>
</svg>
