<svg height="512" viewBox="0 0 64 64" width="512" xmlns="http://www.w3.org/2000/svg"><path d="m41 19h18a1 1 0 0 0 1-1v-1a3.913 3.913 0 0 0 -4-4h-.288c-.834-1.847-2.982-3-5.712-3-2.911 0-4.78.983-5.689 3h-.311a3.748 3.748 0 0 0 -4 4v1a1 1 0 0 0 1 1zm3-4h1a1 1 0 0 0 .955-.7c.371-1.2 1.118-2.3 4.045-2.3 1.617 0 3.643.583 4.026 2.227a1 1 0 0 0 .974.773h1a1.913 1.913 0 0 1 2 2h-16a1.793 1.793 0 0 1 2-2z"/><path d="m18 48h-.288c-.834-1.847-2.982-3-5.712-3-2.911 0-4.78.983-5.689 3h-.311a3.748 3.748 0 0 0 -4 4v1a1 1 0 0 0 1 1h18a1 1 0 0 0 1-1v-1a3.913 3.913 0 0 0 -4-4zm-14 4a1.793 1.793 0 0 1 2-2h1a1 1 0 0 0 .955-.7c.371-1.2 1.118-2.3 4.045-2.3 1.617 0 3.643.583 4.026 2.227a1 1 0 0 0 .974.773h1a1.913 1.913 0 0 1 2 2z"/><path d="m61.91 32.585a7.662 7.662 0 0 0 -1.92-2.336c-1.981-1.743-5.835-3.895-12.99-4.249h-2.626l-14.719-12.756a1 1 0 0 0 -.655-.244h-4a1 1 0 0 0 -.908 1.419l5.345 11.581h-14.778l-5.74-13.394a1 1 0 0 0 -.919-.606h-4a1 1 0 0 0 -1 1.071l.941 13.129a3 3 0 0 0 -1.941 2.8v4a3 3 0 0 0 1.752 2.728l-1.714 6a1 1 0 0 0 .962 1.272h4a1 1 0 0 0 .707-.293l5.683-5.683 15.185.894-4.509 11.723a1 1 0 0 0 .934 1.359h4a1 1 0 0 0 .707-.293l11.707-11.707h1.586c13.523 0 18.519-5.094 18.725-5.311a1 1 0 0 0 .185-1.104zm-5.945-2.585h-9.965v-2h.95a23.318 23.318 0 0 1 9.015 2zm-29.4-15h2.065l3.462 3h-1.092v2h3.4l2.3 2h-2.7v2h5v-.01l2.319 2.01h-9.679zm-19.224-1 5.142 12h-6.552l-.143-2h3.212v-2h-3.355l-.145-2h1.5v-2h-1.64l-.286-4zm35.659 23h-2a1 1 0 0 0 -.707.293l-2.707 2.707h-3.586v2h1.586l-2 2h-3.586v2h1.586l-3 3h-2.13l4.478-11.641a1 1 0 0 0 -.875-1.359l-17-1a.993.993 0 0 0 -.766.291l-5.707 5.709h-2.26l1.636-5.725a1 1 0 0 0 -.962-1.275 1 1 0 0 1 -1-1v-1h11v-2h-11v-1a1 1 0 0 1 1-1h39v3a1 1 0 0 0 1 1h13.929a7.876 7.876 0 0 1 .753.8c-1.61 1.214-6.607 4.2-16.682 4.2z"/><path d="m39 30h2v2h-2z"/><path d="m35 30h2v2h-2z"/><path d="m31 30h2v2h-2z"/><path d="m27 30h2v2h-2z"/><path d="m23 30h2v2h-2z"/><path d="m19 30h2v2h-2z"/></svg>