<?xml version="1.0"?>
<svg xmlns="http://www.w3.org/2000/svg" id="Layer_1" data-name="Layer 1" viewBox="0 0 512 512" width="512" height="512"><title>Hotel location pin</title><path d="M408,40.575H104a44.049,44.049,0,0,0-44,44v205.1a44.049,44.049,0,0,0,44,44h97.832l22.4,57.108a5.913,5.913,0,0,0-4.979-2.06c-27.763,2.044-52.9,6.665-70.794,13.013C127.583,409.138,117,418.5,117,429.551c0,27.49,68.5,41.874,136.17,41.874,60.975,0,113.068-11.32,129.627-28.166,4.183-4.256,6.27-8.885,6.2-13.759-.032-10.884-10.482-20.124-31.06-27.466-17.739-6.329-42.655-10.936-70.16-12.973a6,6,0,1,0-.887,11.966C348.361,405.58,377,420.739,377,429.551c0,.034,0,.069,0,.1.026,1.555-.9,3.3-2.761,5.194-12,12.213-57.446,24.577-121.069,24.577-34.195,0-66.3-3.654-90.4-10.291C139.443,442.71,129,434.67,129,429.551c0-8.935,28.962-24.287,91.128-28.865a6,6,0,0,0,5.549-6.208L242.8,438.132a6.024,6.024,0,0,0,.525,1.031,11.206,11.206,0,0,0,18.907,0,6.019,6.019,0,0,0,.524-1.031l40.964-104.461H408a44.049,44.049,0,0,0,44-44V84.575A44.049,44.049,0,0,0,408,40.575Zm32,249.1a32.037,32.037,0,0,1-32,32H299.623a6,6,0,0,0-5.586,3.809L252.773,430.706,211.509,325.48a6,6,0,0,0-5.586-3.809H104a32.037,32.037,0,0,1-32-32V84.575a32.037,32.037,0,0,1,32-32H408a32.037,32.037,0,0,1,32,32Z"/><path d="M386,171.348a6,6,0,0,0-6,6V201.58H132V104.789a6,6,0,1,0-12,0V280.138a6,6,0,0,0,12,0V243.812H380v36.326a6,6,0,0,0,12,0V177.348A6,6,0,0,0,386,171.348ZM132,231.812V213.58H380v18.232Z"/><path d="M177.212,195.44a30.186,30.186,0,1,0-30.186-30.186A30.22,30.22,0,0,0,177.212,195.44Zm0-48.372a18.186,18.186,0,1,1-18.186,18.186A18.207,18.207,0,0,1,177.212,147.068Z"/><path d="M221.926,195.44H361a6,6,0,0,0,6-6,60.488,60.488,0,0,0-60.419-60.419H221.926a6,6,0,0,0-6,6V189.44A6,6,0,0,0,221.926,195.44Zm6-54.419h78.651a48.493,48.493,0,0,1,48.049,42.419h-126.7Z"/></svg>
