<svg height="511pt" viewBox="-71 1 511 511.9985" width="511pt" xmlns="http://www.w3.org/2000/svg"><path d="m366.53125 486.878906-66.800781-73.019531 16.625-51.09375h4.527343c18.550782 0 33.644532-15.085937 33.644532-33.628906v-239.679688c0-22.050781-13.253906-41.554687-33.765625-49.6875l-66.71875-26.457031c-44.777344-17.75-94.09375-17.75-138.871094 0l-66.714844 26.457031c-20.511719 8.132813-33.765625 27.636719-33.765625 49.6875v239.679688c0 18.542969 15.09375 33.628906 33.644532 33.628906h6.257812l16.628906 51.101563c.023438.074218.054688.144531.082032.21875l-66.851563 72.765624c-5.605469 6.101563-5.203125 15.589844.898437 21.191407 2.878907 2.648437 6.515626 3.957031 10.140626 3.957031 4.054687 0 8.09375-1.632812 11.050781-4.851562l76.183593-82.925782h165.832032l75.839844 82.898438c2.957031 3.234375 7.007812 4.875 11.070312 4.875 3.613281 0 7.242188-1.296875 10.117188-3.929688 6.113281-5.589844 6.535156-15.078125.945312-21.1875zm-321.84375-352.570312h279.84375v78.601562h-279.84375zm279.84375-44.851563v14.855469h-63.492188v-55.957031l48.667969 19.296875c9.003907 3.570312 14.824219 12.128906 14.824219 21.804687zm-139.921875-59.453125c15.632813 0 31.265625 2.34375 46.429687 7.007813v67.300781h-91.246093v-67.792969c14.65625-4.339843 29.734375-6.515625 44.816406-6.515625zm-125.097656 37.648438 50.285156-19.9375v56.597656h-65.109375v-14.855469c0-9.675781 5.820312-18.234375 14.824219-21.804687zm-14.824219 261.484375v-86.226563h279.84375v86.226563c0 2.003906-1.636719 3.628906-3.648438 3.628906h-272.546874c-2.011719 0-3.648438-1.625-3.648438-3.628906zm240.121094 33.628906-10.238282 31.464844h-178.191406l-10.238281-31.464844zm0 0"/><path d="m89.652344 302.84375h26.214844c8.285156 0 15-6.714844 15-15 0-8.28125-6.714844-14.996094-15-14.996094h-26.214844c-8.285156 0-15 6.714844-15 14.996094 0 8.285156 6.714844 15 15 15zm0 0"/><path d="m252.4375 302.84375h26.21875c8.28125 0 14.996094-6.714844 14.996094-15 0-8.28125-6.714844-14.996094-14.996094-14.996094h-26.21875c-8.28125 0-14.996094 6.714844-14.996094 14.996094 0 8.285156 6.714844 15 14.996094 15zm0 0"/></svg>