<svg xmlns="http://www.w3.org/2000/svg" viewBox="0 0 371.08 409.57">
  <title>networking</title>
  <g id="Слой_2" data-name="Слой 2">
    <g id="Слой_1-2" data-name="Слой 1">
      <g>
        <path d="M189.54,0c7.5,1.79,14.75,4.36,19.54,10.72,3,4,5.75,8.47,7.07,13.17,1.09,3.87,2.92,5,6.29,5.7A177,177,0,0,1,322.84,90c1.84,2.23,3.4,2.5,6,1.56A31.53,31.53,0,0,1,366.93,106c7.67,14.08,4.43,31-8.07,40.56-2.47,1.89-2.85,3.45-2,6.22,10.55,34.75,10.45,69.54-.05,104.28-.73,2.43-.67,3.85,1.68,5.61a31.77,31.77,0,0,1-29.86,55.23c-2.66-.95-4-.33-5.68,1.67A176.59,176.59,0,0,1,265.75,365a165.7,165.7,0,0,1-43.63,15.05c-3.38.64-5,1.91-5.82,5.61-3.1,13.83-16.4,23.9-30.74,23.91s-27.9-10.32-30.89-24.27c-.73-3.42-2.27-4.54-5.32-5.15A175.13,175.13,0,0,1,83,351.74a171.3,171.3,0,0,1-34.87-32.14c-1.85-2.26-3.41-2.44-6.06-1.5A31.49,31.49,0,0,1,4.3,303.84c-7.8-14.1-4.76-30.91,7.66-40.64,2.5-2,3.17-3.46,2.24-6.52a175.65,175.65,0,0,1,.12-104.27c.76-2.51.45-3.87-1.81-5.57A31.8,31.8,0,0,1,42.2,91.53c2.67,1,4.2.6,6-1.59A176.07,176.07,0,0,1,105.4,44.55a168.91,168.91,0,0,1,43.24-15c3.38-.66,5.2-1.82,6.2-5.73C158,11.61,166.26,4.06,178.48.85c1-.27,2-.57,3.05-.85ZM95.95,205c.17,49.3,40.62,89.59,89.77,89.41,49.32-.18,89.58-40.6,89.4-89.76S234.5,115,185.35,115.21C136,115.39,95.78,155.81,95.95,205Zm2.59-54.38c21.27-30.92,49.87-48.08,87.23-48s65.79,17.51,86.77,48c9.67-5.29,19-10.65,28.61-15.54,4.85-2.47,7.63-4.62,6.37-11.2-1.64-8.56,1.95-16.46,7.42-23.19C294.51,72.32,240.21,40.1,216,41.9c-4.06,11.49-12.33,18.51-24.18,21.64V89.31H179.09V63.42c-12-3.06-20-10.42-24.14-21.78C120,47,80.61,68.81,56.15,100.67c6.66,8.35,9.21,17.77,7,28.4a3.29,3.29,0,0,0,1.31,2.76C75.67,138.12,87,144.28,98.54,150.59ZM315.06,309.11c-6.81-8.48-9.31-17.9-7.13-28.55.18-.89-1-2.56-2-3.12-7.28-4.17-14.66-8.15-22-12.18-3.8-2.08-7.62-4.14-11.42-6.2-21.26,30.89-49.88,48.05-87.26,48s-65.81-17.53-86.71-48c-11.17,6.11-22,12.14-32.93,17.91-2.54,1.34-2.81,2.79-2.39,5.37.51,3.11,1,6.54.24,9.48-1.61,6.06-4.08,11.88-6.47,18.55,25,30.37,57.8,50.1,97.88,58,4.27-11.91,12.41-19.1,24.5-22.22V320.23h12.54v24.69c5.52,3.3,11,5.54,15.05,9.28s6.79,9,10.35,13.88C256.49,360.22,289.23,340.6,315.06,309.11ZM27.3,256.24c11.85-1.21,21.3,2.87,29.21,11.14l36.13-19.77a100.16,100.16,0,0,1-9.44-42.8A102.55,102.55,0,0,1,92.57,162L57.4,142.67c-5,3.09-9.23,6.54-14.06,8.41s-10.5,2.28-16.39,3.44C16.48,187.8,16.57,221.81,27.3,256.24Zm287.25-114-36,19.71c12.48,28.65,12.37,57.23,0,85.76,10,5.48,19.63,10.56,29,16.06,4.45,2.6,8.32,4.59,11.94-.92.34-.51,1.08-.75,1.63-1.12,6.76-4.59,14.27-6.28,23.38-5.42,2.08-11,4.63-21.72,6.07-32.6,3.05-23.05.54-45.73-6.21-67.94-.28-.93-1.73-2.2-2.57-2.16C331,154.19,322.15,150.08,314.55,142.2ZM204.71,31.89a19.17,19.17,0,1,0-19,19.28A19.41,19.41,0,0,0,204.71,31.89ZM51.08,121.43a19.16,19.16,0,1,0-18.91,19.31A19.27,19.27,0,0,0,51.08,121.43Zm307.22.21a19.17,19.17,0,1,0-19.1,19.13A19.38,19.38,0,0,0,358.31,121.64ZM51.11,288.15a19.39,19.39,0,0,0-18.93-19.32,19.17,19.17,0,1,0,18.93,19.32Zm307.2,0a19.16,19.16,0,1,0-19.22,19A19.29,19.29,0,0,0,358.31,288.17ZM185.43,358.43a19.17,19.17,0,1,0,19.28,18.95A19.39,19.39,0,0,0,185.43,358.43Z"/>
        <path d="M165,197.31c-12-11-13.66-24.62-10.24-38.9,3.71-15.48,18.58-25.5,33.48-23.82,16.8,1.89,28.36,14.48,29.31,31.56.66,11.89-1.88,22.51-11.53,31.09a59.79,59.79,0,0,0,5.12,3.92c9.68,5.87,19.39,11.7,29.16,17.41,2.07,1.21,3,2.52,2.9,5q-.31,9-.05,18c.19,7-2.89,12.19-9.22,14.43-6.84,2.42-14,4.55-21.2,5.17-21.14,1.83-42.36,2.29-63.39-1.3A53.49,53.49,0,0,1,135.13,255c-4.88-2.39-7.23-6.88-7.2-12.46,0-6.4.13-12.8-.06-19.2-.07-2.38.91-3.54,2.8-4.65q14.63-8.62,29.14-17.45C161.57,200.16,163.13,198.74,165,197.31ZM181.77,250c11.73-.54,20-.63,28.22-1.39a108.57,108.57,0,0,0,16.81-3.16,5.69,5.69,0,0,0,3.39-4c1-13.3.95-13.31-10.41-20.21-.57-.35-1.15-.67-1.7-1C210.55,215,203,209.8,195.45,204.68a4.82,4.82,0,0,0-2.52-.71c-4.88-.06-9.76-.07-14.64,0a4.33,4.33,0,0,0-2.84.82c-7.14,7.69-16.47,12.26-25.46,17-7.28,3.83-10.54,8.35-9.41,16.67.79,5.83.51,6.41,6.14,7.93a20.85,20.85,0,0,0,3.5.79C161.88,248.25,173.53,249.26,181.77,250Zm22.87-81.37a35.66,35.66,0,0,0,0-3.6,19.23,19.23,0,0,0-18-17.75c-9.3-.59-18.12,5.78-19.66,15.18a41,41,0,0,0,.29,15.41c2.77,12.12,16.89,17.8,27.64,11.54C202.56,185,205.26,177.94,204.64,168.63Z"/>
        <path d="M191.62,38.26H179.39V25.81h12.23Z"/>
        <path d="M25.73,127.73V115.4H38v12.34Z"/>
        <path d="M345.33,127.82H333V115.45h12.32Z"/>
        <path d="M25.74,281.78H38.06v12.38H25.74Z"/>
        <path d="M332.91,294.19V281.88h12.38v12.31Z"/>
        <path d="M179.31,383.79V371.48h12.38v12.31Z"/>
      </g>
    </g>
  </g>
</svg>
