<svg id="Capa_1" enable-background="new 0 0 512 512" height="512" viewBox="0 0 512 512" width="512" xmlns="http://www.w3.org/2000/svg"><path d="m502 246h-26.222c-5.131-115.44-100.144-210-219.778-210-119.707 0-214.65 94.637-219.778 210h-26.222c-5.522 0-10 4.477-10 10v90c0 5.523 4.478 10 10 10h492c5.522 0 10-4.477 10-10v-90c0-5.523-4.478-10-10-10zm-10 90h-46v-20c0-5.523-4.478-10-10-10s-10 4.477-10 10v20h-40v-20c0-5.523-4.478-10-10-10s-10 4.477-10 10v20h-40v-20c0-5.523-4.478-10-10-10s-10 4.477-10 10v20h-40v-20c0-5.523-4.478-10-10-10s-10 4.477-10 10v20h-40v-20c0-5.523-4.478-10-10-10s-10 4.477-10 10v20h-40v-20c0-5.523-4.478-10-10-10s-10 4.477-10 10v20h-40v-20c0-5.523-4.478-10-10-10s-10 4.477-10 10v20h-46v-70h26c5.522 0 10-4.477 10-10 0-110.28 89.72-200 200-200s200 89.72 200 200c0 5.523 4.478 10 10 10h26z"/><path d="m256 126c-71.683 0-130 58.318-130 130 0 5.523 4.478 10 10 10h90c5.522 0 10-4.477 10-10 0-11.028 8.972-20 20-20s20 8.972 20 20c0 5.523 4.478 10 10 10h90c5.522 0 10-4.477 10-10 0-71.682-58.317-130-130-130zm38.734 120c-4.451-17.233-20.13-30-38.734-30s-34.283 12.767-38.734 30h-70.816c5.066-55.988 52.265-100 109.55-100s104.483 44.012 109.55 100z"/><circle cx="251" cy="466" r="10"/><path d="m496 436c0-4.304-2.754-8.125-6.838-9.487l-90-30c-.89-.3-2.093-.513-3.162-.513h-370c-5.522 0-10 4.477-10 10v60c0 5.523 4.478 10 10 10h180c5.522 0 10-4.477 10-10s-4.478-10-10-10h-50v-40h230v40h-90c-5.522 0-10 4.477-10 10s4.478 10 10 10h100c1.04 0 2.179-.196 3.092-.493.023-.008.047-.013.07-.02l90-30c4.084-1.362 6.838-5.183 6.838-9.487zm-460-20h40v40h-40zm100 40h-40v-40h40zm270-3.874v-32.251l48.377 16.125z"/></svg>