<svg xmlns="http://www.w3.org/2000/svg" viewBox="0 0 360.5 360.02">
  <title>seminar</title>
  <g id="Слой_2" data-name="Слой 2">
    <g id="Слой_1-2" data-name="Слой 1">
      <g>
        <path d="M180.3,240H9.35c-7.2,0-8.43-1.7-9-8.72-1.55-19.22,2.14-37.19,10-54.8C17.49,160.68,23,144.19,29.16,128a19,19,0,0,0,1.23-6.51Q30.5,65,30.45,8.61C30.45,1.73,32.19,0,39.09,0H321.75c6.94,0,8.69,1.73,8.7,8.55q0,56.23.06,112.47a20.93,20.93,0,0,0,1.33,7.24c9,23.67,18.16,47.28,27.15,71a23.15,23.15,0,0,1,1.42,7.62c.17,8.37.06,16.74,0,25.12,0,6.12-1.94,8.05-8.08,8.05Zm165.26-42.09c-.55-1.54-.94-2.7-1.38-3.85-7.48-19.45-15-38.86-22.35-58.37-1.12-3-2.59-3.76-5.62-3.76q-79.87.15-159.73.09h-5.83V120H318.18V12.31H42.69V120.13H54.25V132c-3.66,0-7.14.16-10.6-.06-2.42-.15-3.43.77-4.27,3-7.57,19.95-15.28,39.84-22.93,59.75-.38,1-.64,2-1,3.23Zm2.71,12.36H12.63v17.54H348.27Z"/>
        <path d="M241.51,305.24c-9.48-12.32-9.24-25.36.31-34.51a23.9,23.9,0,0,1,32.08-1.06c10.48,8.8,11.13,21.23,1.7,35.62,6.93,5.23,11.84,12.06,12.47,20.8.69,9.44.43,19,.24,28.45-.07,3.43-2.58,5.4-6,5.41q-23.79.1-47.58,0c-3.47,0-6-1.93-6.09-5.36-.19-9.61-.44-19.26.28-28.82C229.53,317.18,234.39,310.45,241.51,305.24Zm34.83,42.68c0-6.9.4-13.52-.1-20.07-.65-8.36-7.8-15-16.06-15.78s-17.09,4.39-18.62,12.47c-1.44,7.57-1.05,15.49-1.47,23.37ZM258.4,276a12,12,0,1,0,12,11.84A12.07,12.07,0,0,0,258.4,276Z"/>
        <path d="M313.5,305.23c-9.54-12.53-9.21-25.6.57-34.72a23.88,23.88,0,0,1,32.09-.63c10.31,8.87,10.87,21.48,1.46,35.32,1.08,1,2.23,1.89,3.29,2.91a29.36,29.36,0,0,1,9.52,21.28c.14,7.87.08,15.74,0,23.6,0,4.69-2.24,7-6.86,7q-23,.08-46.09,0c-4.84,0-7-2.25-7-7.2,0-5.74.24-11.51-.09-17.23C299.67,323.28,303.05,312.87,313.5,305.23Zm34.87,42.59c0-6.79.37-13.29-.09-19.73-.63-8.93-8.45-15.87-17.34-16.07-9.07-.21-17.35,6.45-18.21,15.52-.63,6.65-.12,13.41-.12,20.29Zm-5.95-59.9A12,12,0,1,0,330.6,300,12.05,12.05,0,0,0,342.42,287.92Z"/>
        <path d="M163.18,305.1c-9.26-14.15-8.62-26.68,1.79-35.43a24,24,0,0,1,32.1,1c9.56,9.16,9.83,22.17.69,34.09,0,.23,0,.57.16.68,9.32,7.26,13.14,16.87,12.59,28.55-.29,6.11,0,12.24,0,18.36,0,5.44-2.08,7.6-7.38,7.61q-22.67,0-45.34,0c-5.12,0-7.26-2.16-7.29-7.32,0-7.37,0-14.74,0-22.11A29.57,29.57,0,0,1,162,306.47a13.38,13.38,0,0,0,1.09-1C163.14,305.37,163.14,305.22,163.18,305.1Zm35.19,42.72c0-6.74.36-13.24-.09-19.69-.62-8.94-8.4-15.87-17.33-16.09-9.14-.23-17.33,6.33-18.2,15.47-.63,6.65-.12,13.41-.12,20.31Zm-5.93-60A12,12,0,1,0,180.7,300,12.08,12.08,0,0,0,192.44,287.84Z"/>
        <path d="M13.51,305.25C4,292.81,4.24,280,13.79,270.77a23.85,23.85,0,0,1,32.07-1.13c10.52,8.78,11.2,21.56,1.73,35.63,7,5.21,11.83,12.07,12.48,20.8.7,9.44.44,19,.25,28.45-.07,3.43-2.55,5.42-6,5.44q-23.79.11-47.59,0c-3.47,0-6-1.9-6.12-5.32-.2-9.61-.44-19.26.28-28.83C1.52,317.23,6.35,310.48,13.51,305.25Zm34.93,42.56c0-6.26.12-12.24,0-18.21A18.07,18.07,0,0,0,31.68,312c-9.38-.59-18,6.08-19,15.47-.65,6.65-.13,13.41-.13,20.3ZM30.5,300a12,12,0,1,0-12-11.84A12.09,12.09,0,0,0,30.5,300Z"/>
        <path d="M85.48,305.24c-9.53-12.69-9.24-25.55.51-34.7a23.89,23.89,0,0,1,32.37-.47c10.14,8.94,10.64,21.78,1.25,35.09.81.71,1.64,1.41,2.45,2.15,6.6,6,10.24,13.44,10.36,22.43.1,7.62.05,15.24,0,22.86,0,5.33-2.13,7.38-7.58,7.39q-22.48,0-45,0c-5.37,0-7.43-2.11-7.45-7.52,0-5.87.26-11.75,0-17.61C71.77,322.83,75.3,312.73,85.48,305.24Zm34.81,42.57c0-6.89.48-13.64-.12-20.29-.77-8.51-8.32-15.07-16.7-15.5-8.75-.45-17,5.16-18.27,13.88-1,7.15-.21,14.56-.21,21.91ZM102.41,276a12,12,0,1,0,12,11.85A12.07,12.07,0,0,0,102.41,276Z"/>
        <path d="M119.5,95.28c10.42,7.68,13.88,18.15,12.87,30.73,2.13,0,3.85-.05,5.56,0,4.18.16,6.48,2.36,6.5,6.59q.09,23.43,0,46.86c0,4.19-2.35,6.5-6.57,6.51Q102.43,186,67,186c-4.2,0-6.5-2.34-6.52-6.55q-.09-23.43,0-46.86c0-4.2,2.33-6.39,6.54-6.54,1.62-.06,3.24,0,5.45,0-.88-12.36,2.31-23.07,13.1-30.73C80,88.78,77.14,81.62,79,73.14a24,24,0,0,1,40.21-12.31C128.6,70,128.78,82.17,119.5,95.28Zm12.78,43H72.75v35.55h59.53Zm-12-12.38c1-9.18-.84-16.87-9.08-21.54-6.56-3.72-13.24-3.22-19.33,1.22-6.93,5.06-8.16,12.25-7.1,20.32Zm-5.8-48A12,12,0,1,0,102.64,90,12.08,12.08,0,0,0,114.44,77.9Z"/>
        <path d="M270.45,71.58c0-5.36,0-10.6,0-15.83,0-5.78,2.35-8,8-7.68,15,.83,27.44,13.58,28,28.64a30.11,30.11,0,0,1-26.53,31.11c-14.74,2-29.47-8.47-32.66-23.16a36,36,0,0,1-.65-3.69c-.71-6.46,1.57-9,8.13-9l14.61-.06A5.7,5.7,0,0,0,270.45,71.58ZM259.87,84A17.68,17.68,0,0,0,279,95.84a18.17,18.17,0,0,0,15.46-18c0-7.6-5.54-15.1-12-16.13,0,5,0,10,0,15S280.28,84,275.14,84C270.16,84.05,265.18,84,259.87,84Z"/>
        <path d="M246.1,66c-3.75,0-7.5.08-11.24,0-4.13-.11-6.37-2.52-6.4-6.66C228.33,44,242.35,29.94,257.73,30c4.16,0,6.64,2.24,6.69,6.36q.15,11.62,0,23.23c-.05,4-2.35,6.25-6.32,6.37S250.1,66,246.1,66Zm-4.38-12.27h10.47V43.19C247,45.37,243.7,48.6,241.72,53.73Z"/>
        <path d="M141.77,48.63c8.46-4.19,16.57-8.26,24.74-12.21a7.85,7.85,0,0,1,3.29-.24,6,6,0,0,1,1.42.44c5.23,1.47,10.6,4.44,15.66,4s9.64-4.37,14.44-6.75c2-1,4-2,6.41-3.14l5.44,10.7c-8.6,4.21-16.9,8.41-25.36,12.27-1.32.6-3.59.09-5-.67-9.5-5.08-18.38-4.25-27.08,2-2.49,1.78-5.51,2.82-8.56,4.33Z"/>
        <path d="M210.2,95.85H198.63V54.31H210.2Z"/>
        <path d="M174.19,95.82H162.63V60.28h11.56Z"/>
        <path d="M180.72,66.17h11.55V95.71H180.72Z"/>
        <path d="M156.29,66.2V95.72H144.68V66.2Z"/>
      </g>
    </g>
  </g>
</svg>
