<svg height="511pt" viewBox="-28 1 511 511.999" width="511pt" xmlns="http://www.w3.org/2000/svg"><path d="m403.164062 85.199219c-15.847656-2.003907-31.335937-5.519531-46.027343-10.445313-3.929688-1.316406-8.179688.800782-9.496094 4.726563-1.316406 3.929687.800781 8.179687 4.726563 9.496093 15.628906 5.242188 32.085937 8.976563 48.917968 11.105469 25.242188 3.195313 43.257813 26.492188 40.15625 51.929688-4.066406 33.359375-11.511718 83.152343-23.886718 130.917969-13.480469 52.027343-29.300782 88.226562-47.023438 107.59375-36.394531 39.769531-82.023438 75.019531-113.890625 97.585937-16.746094 11.859375-39.246094 11.859375-55.988281 0-31.867188-22.566406-77.496094-57.816406-113.890625-97.585937-17.722657-19.367188-33.546875-55.566407-47.023438-107.59375-12.375-47.765626-19.820312-97.558594-23.890625-130.917969-3.097656-25.4375 14.914063-48.734375 40.160156-51.929688 72.769532-9.203125 121-45.765625 148.648438-74.816406 6.300781-6.617187 14.820312-10.265625 23.988281-10.265625s17.6875 3.648438 23.992188 10.265625c19.917969 20.929687 42.941406 37.996094 68.429687 50.726563 3.703125 1.851562 8.210938.347656 10.0625-3.359376 1.847656-3.707031.34375-8.210937-3.359375-10.058593-23.929687-11.953125-45.550781-27.984375-64.269531-47.648438-9.160156-9.625-21.539062-14.925781-34.855469-14.925781-13.316406 0-25.695312 5.300781-34.855469 14.925781-25.96875 27.285157-71.277343 61.625-139.664062 70.273438-33.414062 4.226562-57.265625 35.015625-53.167969 68.628906 6.984375 57.289063 28.25 196.023437 74.738281 246.824219 37.289063 40.746094 83.820313 76.707031 116.285157 99.699218 10.964843 7.765626 23.8125 11.648438 36.664062 11.648438 12.847657-.003906 25.699219-3.882812 36.664063-11.648438 32.464844-22.992187 78.996094-58.953124 116.285156-99.699218 46.492188-50.800782 67.753906-189.535156 74.738281-246.824219 4.097657-33.613281-19.753906-64.402344-53.167969-68.628906zm0 0"/><path d="m211.722656 70.453125c-37.941406 32.832031-82.234375 54.320313-131.644531 63.867187-15.054687 2.910157-25.21875 17.144532-23.140625 32.410157 3.496094 25.667969 10.644531 73.671875 19.21875 106.765625 15.628906 60.335937 30.742188 83.308594 38.359375 91.628906 25.039063 27.359375 71.5 63.917969 96.964844 83.273438 5.054687 3.839843 11.109375 5.757812 17.164062 5.757812 6.054688 0 12.109375-1.917969 17.164063-5.757812 25.464844-19.355469 71.925781-55.914063 96.964844-83.273438 7.617187-8.320312 22.730468-31.292969 38.359374-91.628906 8.578126-33.101563 15.722657-81.101563 19.222657-106.765625 2.078125-15.265625-8.089844-29.5-23.144531-32.410157-49.410157-9.546874-93.703126-31.035156-131.644532-63.867187-9.648437-8.347656-24.195312-8.347656-33.84375 0zm173.769532 94.25c-3.453126 25.339844-10.496094 72.675781-18.878907 105.03125-15.800781 60.992187-30.710937 80.679687-34.902343 85.265625-25.152344 27.480469-74.800782 66.117188-94.980469 81.453125-4.761719 3.621094-11.410157 3.621094-16.171875 0-20.179688-15.335937-69.828125-53.976563-94.976563-81.453125-4.195312-4.585938-19.105469-24.273438-34.90625-85.265625-8.378906-32.347656-15.421875-79.6875-18.875-105.03125-1.007812-7.378906 3.878907-14.253906 11.121094-15.65625 52.027344-10.050781 98.664063-32.675781 138.617187-67.25 2.023438-1.753906 4.566407-2.632813 7.105469-2.632813 2.539063 0 5.082031.878907 7.105469 2.632813 39.953125 34.574219 86.589844 57.199219 138.617188 67.25 7.242187 1.402344 12.128906 8.277344 11.125 15.65625zm0 0"/><path d="m187.050781 234.066406c-5.640625-4.59375-24.679687-14.078125-38.3125 3.933594-13.628906 18.007812-1.707031 33.71875 3.933594 38.3125l21.75 17.695312c3.210937 2.613282 7.9375 2.132813 10.550781-1.082031 2.613282-3.214843 2.128906-7.9375-1.082031-10.554687l-21.75-17.695313c-2.53125-2.0625-8.0625-8.777343-1.765625-17.210937 6.296875-8.429688 14.675781-3.828125 17.207031-1.765625l45.035157 36.644531c2.972656 2.417969 7.289062 2.207031 10.011718-.492188l65.902344-65.285156c4.792969-4.75 12.550781-4.710937 17.300781.082032 4.746094 4.789062 4.707031 12.550781-.082031 17.296874l-78.496094 77.765626c-6.214844 5.992187-13.058594 3.496093-16.328125.796874l-12.460937-10.136718c-3.214844-2.613282-7.9375-2.128906-10.554688 1.082031-2.613281 3.210937-2.128906 7.9375 1.085938 10.550781l12.460937 10.140625c4.839844 3.9375 10.941407 6.109375 17.183594 6.109375 7.230469 0 14.039063-2.800781 19.171875-7.886718l78.492188-77.761719c10.667968-10.570313 10.75-27.847657.179687-38.515625-10.566406-10.664063-27.84375-10.746094-38.511719-.179688l-61.117187 60.546875zm0 0"/></svg>